<svg width="60" height="32" viewBox="0 0 60 32" fill="none" xmlns="http://www.w3.org/2000/svg">
<g id="Frame">
<path id="Vector" d="M7.88712 19.0433C7.82478 19.1056 7.72092 19.1834 7.5757 19.2768C7.43021 19.3703 7.24091 19.4637 7.00735 19.5572C6.7738 19.6505 6.48816 19.7308 6.15096 19.7985C5.81345 19.8658 5.42693 19.8997 4.99095 19.8997C4.15004 19.8997 3.42334 19.7646 2.81096 19.4949C2.19832 19.2252 1.69231 18.8486 1.29277 18.366C0.893084 17.8833 0.599914 17.3125 0.413063 16.6531C0.226211 15.994 0.132812 15.27 0.132812 14.481C0.132812 13.6923 0.234005 12.9628 0.43644 12.2933C0.638822 11.6237 0.94245 11.0452 1.34727 10.5571C1.75214 10.0693 2.2582 9.68779 2.8655 9.41261C3.47276 9.13775 4.18633 9 5.00648 9C5.41135 9 5.77726 9.03645 6.10426 9.10898C6.43127 9.18167 6.71664 9.26739 6.96071 9.36591C7.20446 9.4647 7.40694 9.56829 7.56796 9.67733C7.72877 9.78631 7.85072 9.87736 7.93392 9.94979C8.02732 10.033 8.10765 10.1316 8.17527 10.2456C8.24268 10.36 8.27646 10.4846 8.27646 10.6194C8.27646 10.8271 8.19859 11.0347 8.04291 11.2422C7.88722 11.45 7.7159 11.642 7.529 11.8184C7.40443 11.6938 7.26433 11.5668 7.10865 11.4369C6.95291 11.3072 6.77898 11.1931 6.587 11.0943C6.39482 10.9958 6.1768 10.9128 5.933 10.8452C5.68899 10.7778 5.41653 10.7439 5.11557 10.7439C4.58613 10.7439 4.1424 10.8505 3.78423 11.0632C3.42611 11.2761 3.13802 11.5536 2.92005 11.8962C2.70208 12.2388 2.54635 12.6307 2.4529 13.0718C2.3595 13.5131 2.31279 13.962 2.31279 14.4187C2.31279 14.9068 2.3595 15.3739 2.4529 15.8201C2.54629 16.2664 2.7071 16.661 2.93563 17.0034C3.1638 17.346 3.46235 17.6212 3.83093 17.8287C4.19925 18.0365 4.65861 18.1401 5.20897 18.1401C5.49942 18.1401 5.76686 18.1039 6.01087 18.0312C6.25461 17.9586 6.47018 17.8703 6.65703 17.7663C6.84388 17.6628 7.00741 17.5539 7.14751 17.4395C7.28766 17.3253 7.40443 17.2268 7.49789 17.1436C7.56017 17.2164 7.63265 17.3047 7.71585 17.4084C7.79949 17.5131 7.87745 17.6223 7.9494 17.7354C8.02194 17.8497 8.08422 17.9638 8.13625 18.0778C8.18808 18.1922 8.21407 18.2959 8.21407 18.3892C8.21407 18.5243 8.18808 18.6384 8.13625 18.7318C8.08417 18.8253 8.00118 18.9292 7.88712 19.0433ZM15.9115 17.8491C15.9115 18.6741 16.0314 19.2746 16.2717 19.6506C16.0838 19.7235 15.9088 19.7758 15.747 19.8072C15.5849 19.8385 15.4153 19.8541 15.2379 19.8541C14.862 19.8541 14.5773 19.781 14.3842 19.6348C14.1909 19.4888 14.0682 19.2799 14.0161 19.0082C13.7862 19.2487 13.4834 19.4522 13.1075 19.6194C12.7315 19.7861 12.2719 19.8699 11.729 19.8699C11.447 19.8699 11.1651 19.8308 10.8831 19.753C10.6011 19.6745 10.3451 19.5472 10.1155 19.3705C9.88564 19.1934 9.69774 18.9565 9.55158 18.6598C9.4052 18.3631 9.33225 18.0014 9.33225 17.5747C9.33225 17.0438 9.46006 16.6116 9.71605 16.2786C9.97188 15.9454 10.293 15.6826 10.6795 15.4899C11.0657 15.2975 11.4835 15.165 11.9327 15.0919C12.3816 15.019 12.7942 14.9723 13.1701 14.9512C13.2956 14.9409 13.4181 14.9355 13.5383 14.9355H13.8751V14.6504C13.8751 14.249 13.7679 13.9638 13.5539 13.795C13.3397 13.6261 12.9924 13.5414 12.5122 13.5414C12.0631 13.5414 11.6636 13.6145 11.3139 13.7607C10.9639 13.907 10.6219 14.074 10.2878 14.262C10.1415 14.0845 10.0239 13.8887 9.93537 13.6745C9.84658 13.4606 9.80223 13.3013 9.80223 13.1968C9.80223 13.0506 9.88297 12.9097 10.045 12.7738C10.2068 12.6382 10.4288 12.5153 10.7108 12.4057C10.9928 12.296 11.3164 12.2074 11.6821 12.1394C12.0475 12.0716 12.4339 12.0376 12.8413 12.0376C13.4052 12.0376 13.8829 12.0951 14.2745 12.2099C14.6662 12.3249 14.9846 12.5024 15.2301 12.7425C15.4754 12.9829 15.6504 13.2829 15.7548 13.6432C15.8591 14.0035 15.9115 14.424 15.9115 14.9042V17.8491ZM13.9063 16.032H13.6871C13.6138 16.032 13.5407 16.0374 13.4678 16.0477C13.2065 16.0688 12.948 16.1 12.6924 16.1416C12.4363 16.1835 12.2092 16.2566 12.011 16.361C11.8125 16.4655 11.6507 16.6013 11.5254 16.7682C11.4 16.9354 11.3373 17.1496 11.3373 17.4106C11.3373 17.703 11.4208 17.9509 11.5879 18.1546C11.7549 18.3583 12.0369 18.4601 12.4339 18.4601C12.6321 18.4601 12.8202 18.4341 12.9978 18.3816C13.1753 18.3297 13.3319 18.2617 13.4678 18.1782C13.6034 18.0946 13.7106 18.0033 13.7889 17.9039C13.8672 17.8048 13.9064 17.7135 13.9064 17.6299V16.032H13.9063ZM19.8118 12.9461C19.9782 12.7478 20.2387 12.5466 20.5925 12.3429C20.9465 12.1393 21.3941 12.0375 21.9355 12.0375C22.3209 12.0375 22.6878 12.1028 23.0366 12.2333C23.3851 12.364 23.695 12.5755 23.9656 12.8677C24.2364 13.1602 24.4524 13.5467 24.6138 14.0269C24.7752 14.5074 24.8559 15.0975 24.8559 15.797C24.8559 16.6115 24.7621 17.2827 24.5748 17.8099C24.3872 18.3375 24.1454 18.7552 23.8488 19.0632C23.5521 19.3713 23.2214 19.588 22.8572 19.7132C22.4927 19.8385 22.1283 19.9013 21.7641 19.9013C21.4621 19.9013 21.1991 19.8673 20.9755 19.7995C20.7515 19.7314 20.5616 19.656 20.4054 19.5723C20.2493 19.4888 20.1296 19.4054 20.0464 19.3216C19.9632 19.2382 19.911 19.1806 19.8903 19.1492V23H17.7598V12.2567C17.8122 12.2465 17.8754 12.236 17.9492 12.2255C18.0124 12.2152 18.0861 12.2073 18.1703 12.2019C18.2544 12.1968 18.3544 12.1942 18.4701 12.1942C18.8172 12.1942 19.1118 12.2517 19.3539 12.3665C19.5958 12.4815 19.7486 12.6746 19.8118 12.9461ZM22.6315 15.844C22.6315 15.5307 22.6055 15.2385 22.5536 14.9668C22.5017 14.6954 22.4161 14.4604 22.2966 14.2619C22.1772 14.0636 22.0161 13.9094 21.8137 13.7997C21.611 13.6901 21.3646 13.6354 21.074 13.6354C20.6379 13.6354 20.3341 13.719 20.1627 13.8859C19.9915 14.0531 19.9058 14.236 19.9058 14.4342V17.7552C19.9887 17.8389 20.1365 17.9379 20.3495 18.0528C20.5625 18.1678 20.8089 18.225 21.0894 18.225C21.619 18.225 22.0084 18.0164 22.2577 17.5985C22.5069 17.1809 22.6315 16.5959 22.6315 15.844ZM26.5002 18.5384C26.427 18.3297 26.38 18.1102 26.3592 17.8804C26.3382 17.6508 26.3279 17.4211 26.3279 17.1911V9.9227C26.4008 9.91245 26.4792 9.90194 26.5628 9.89137C26.6357 9.88112 26.7141 9.87333 26.7978 9.86789C26.8813 9.86277 26.9647 9.8601 27.0484 9.8601C27.2153 9.8601 27.3826 9.87579 27.5497 9.90706C27.7166 9.93844 27.8681 10.0011 28.0041 10.095C28.1397 10.189 28.2493 10.3171 28.3329 10.4788C28.4165 10.6408 28.4582 10.8524 28.4582 11.1132V12.2254H30.6514V13.8076H28.4582V17.1481C28.4582 17.8766 28.7559 18.2407 29.3512 18.2407C29.4973 18.2407 29.6356 18.2173 29.7663 18.1702C29.8968 18.1232 30.0142 18.0711 30.1188 18.0136C30.2231 17.9562 30.3146 17.8962 30.3929 17.8335C30.4712 17.7708 30.526 17.7239 30.5573 17.6925C30.714 17.9224 30.8339 18.1214 30.9176 18.2893C31.0011 18.4575 31.0429 18.6152 31.0429 18.7627C31.0429 18.8998 30.9882 19.0343 30.8785 19.166C30.7687 19.2977 30.6146 19.4191 30.4163 19.5297C30.2179 19.6403 29.9778 19.7299 29.6958 19.7985C29.4138 19.867 29.1056 19.9013 28.7715 19.9013C28.1239 19.9013 27.6201 19.7759 27.2598 19.5254C26.8996 19.2746 26.6462 18.9456 26.5002 18.5384ZM36.047 18.3347C36.3089 18.3347 36.5395 18.3061 36.7388 18.2485C36.9378 18.1913 37.1159 18.1208 37.2732 18.0372C37.4302 17.9538 37.5666 17.8623 37.6819 17.7631C37.7972 17.6639 37.9019 17.5726 37.9965 17.4889C38.122 17.6454 38.253 17.8467 38.3893 18.0919C38.5255 18.3375 38.5937 18.5384 38.5937 18.695C38.5937 18.9248 38.463 19.1337 38.2021 19.3216C37.9828 19.4888 37.6719 19.6324 37.2701 19.7524C36.8679 19.8724 36.3952 19.9325 35.8524 19.9325C35.3613 19.9325 34.8784 19.8699 34.4034 19.7446C33.9281 19.6193 33.5051 19.3999 33.1345 19.0866C32.7637 18.7734 32.4634 18.3531 32.2337 17.8257C32.004 17.2983 31.8891 16.6327 31.8891 15.8284C31.8891 15.1704 31.991 14.6041 32.1945 14.1288C32.3982 13.6537 32.6696 13.2594 33.0093 12.9461C33.3484 12.6328 33.7322 12.4032 34.1605 12.2568C34.5886 12.1107 35.0273 12.0375 35.4764 12.0375C36.0612 12.0375 36.5572 12.1291 36.9645 12.3117C37.3719 12.4945 37.7032 12.74 37.9593 13.0479C38.215 13.356 38.4003 13.7085 38.5153 14.1053C38.6301 14.5023 38.6876 14.9198 38.6876 15.3584V15.5777C38.6876 15.6615 38.685 15.75 38.6798 15.844C38.6745 15.9381 38.6693 16.0296 38.6642 16.1181C38.6588 16.2071 38.6509 16.2775 38.6408 16.3297H34.0195C34.0614 16.9041 34.2395 17.3818 34.5539 17.7631C34.868 18.1444 35.3658 18.3347 36.047 18.3347ZM36.7609 15.1547C36.7609 14.6535 36.6636 14.2462 36.4693 13.9329C36.275 13.6197 35.9256 13.4629 35.4217 13.4629C34.9909 13.4629 34.647 13.6118 34.3897 13.9094C34.1322 14.2071 34.0039 14.6222 34.0039 15.1547H36.7609ZM42.3951 12.9856C42.4576 12.8925 42.5411 12.7889 42.6457 12.6748C42.7499 12.5608 42.878 12.4572 43.0295 12.364C43.1808 12.2708 43.3479 12.1929 43.5308 12.1308C43.7133 12.0686 43.9092 12.0375 44.1183 12.0375C44.2435 12.0375 44.3767 12.048 44.5176 12.0686C44.6586 12.0894 44.789 12.1283 44.9092 12.1851C45.0292 12.2422 45.1259 12.3197 45.199 12.4181C45.272 12.5166 45.3087 12.6382 45.3087 12.7831C45.3087 13.011 45.2511 13.2726 45.1364 13.5681C45.0213 13.8637 44.9067 14.1158 44.7918 14.3246C44.6141 14.1784 44.4366 14.0662 44.2591 13.9878C44.0815 13.9095 43.8726 13.8703 43.6325 13.8703C43.3088 13.8703 43.0373 13.9646 42.8181 14.153C42.5986 14.3415 42.489 14.5667 42.489 14.8285V19.8996H40.3587V12.2567C40.4108 12.2465 40.4734 12.236 40.5466 12.2255C40.6092 12.2152 40.6823 12.2073 40.7659 12.2019C40.8494 12.1968 40.9485 12.1942 41.0635 12.1942C41.3976 12.1942 41.6874 12.2589 41.9329 12.3883C42.1781 12.5174 42.3324 12.7167 42.3951 12.9856ZM48.4521 12.9856C48.5147 12.8925 48.5982 12.7889 48.7027 12.6748C48.807 12.5608 48.935 12.4572 49.0865 12.364C49.2378 12.2708 49.4049 12.1929 49.5878 12.1308C49.7704 12.0686 49.9662 12.0375 50.1752 12.0375C50.3005 12.0375 50.4336 12.048 50.5746 12.0686C50.7155 12.0894 50.8461 12.1283 50.9662 12.1851C51.0863 12.2422 51.1828 12.3197 51.2562 12.4181C51.3291 12.5166 51.3658 12.6382 51.3658 12.7831C51.3658 13.011 51.3081 13.2726 51.1935 13.5681C51.0783 13.8637 50.9636 14.1158 50.8488 14.3246C50.6712 14.1784 50.4935 14.0662 50.3161 13.9878C50.1386 13.9095 49.9297 13.8703 49.6896 13.8703C49.3658 13.8703 49.0943 13.9646 48.875 14.153C48.6557 14.3415 48.5461 14.5667 48.5461 14.8285V19.8996H46.4157V12.2567C46.4678 12.2465 46.5305 12.236 46.6037 12.2255C46.6664 12.2152 46.7394 12.2073 46.823 12.2019C46.9064 12.1968 47.0055 12.1942 47.1205 12.1942C47.4548 12.1942 47.7445 12.2589 47.9899 12.3883C48.2352 12.5174 48.3893 12.7167 48.4521 12.9856ZM58.6186 17.8491C58.6186 18.6741 58.7386 19.2746 58.9789 19.6506C58.7909 19.7235 58.616 19.7758 58.4542 19.8072C58.2922 19.8385 58.1225 19.8541 57.9451 19.8541C57.569 19.8541 57.2845 19.781 57.0914 19.6348C56.8979 19.4888 56.7754 19.2799 56.7232 19.0082C56.4934 19.2487 56.1906 19.4522 55.8146 19.6194C55.4387 19.7861 54.979 19.8699 54.4362 19.8699C54.1542 19.8699 53.8723 19.8308 53.5902 19.753C53.3083 19.6745 53.0522 19.5472 52.8227 19.3705C52.5928 19.1934 52.4049 18.9565 52.2587 18.6598C52.1124 18.3631 52.0395 18.0014 52.0395 17.5747C52.0395 17.0438 52.1671 16.6116 52.4233 16.2786C52.679 15.9454 53.0002 15.6826 53.3867 15.4899C53.7729 15.2975 54.1906 15.165 54.6399 15.0919C55.0887 15.019 55.5014 14.9723 55.8773 14.9512C56.0027 14.9409 56.1253 14.9355 56.2456 14.9355H56.5823V14.6504C56.5823 14.249 56.475 13.9638 56.2611 13.795C56.0468 13.6261 55.6996 13.5414 55.2194 13.5414C54.7703 13.5414 54.3709 13.6145 54.0211 13.7607C53.6711 13.907 53.3291 14.074 52.995 14.262C52.8487 14.0845 52.731 13.8887 52.6425 13.6745C52.5538 13.4606 52.5094 13.3013 52.5094 13.1968C52.5094 13.0506 52.5902 12.9097 52.7522 12.7738C52.914 12.6382 53.136 12.5153 53.4179 12.4057C53.7 12.296 54.0235 12.2074 54.3891 12.1394C54.7546 12.0716 55.1411 12.0376 55.5484 12.0376C56.1123 12.0376 56.5901 12.0951 56.9817 12.2099C57.3733 12.3249 57.6917 12.5024 57.9372 12.7425C58.1825 12.9829 58.3574 13.2829 58.462 13.6432C58.5662 14.0035 58.6186 14.424 58.6186 14.9042V17.8491ZM56.6135 16.032H56.3942C56.321 16.032 56.2479 16.0374 56.175 16.0477C55.9138 16.0688 55.6552 16.1 55.3995 16.1416C55.1435 16.1835 54.9164 16.2566 54.7181 16.361C54.5196 16.4655 54.3578 16.6013 54.2325 16.7682C54.1072 16.9354 54.0445 17.1496 54.0445 17.4106C54.0445 17.703 54.128 17.9509 54.2951 18.1546C54.4621 18.3583 54.7442 18.4601 55.1411 18.4601C55.3394 18.4601 55.5274 18.4341 55.705 18.3816C55.8825 18.3297 56.0391 18.2617 56.175 18.1782C56.3105 18.0946 56.4178 18.0033 56.4961 17.9039C56.5744 17.8048 56.6136 17.7135 56.6136 17.6299V16.032H56.6135Z" fill="#050038"/>
</g>
</svg>
