<svg width="20" height="32" viewBox="0 0 20 32" fill="none" xmlns="http://www.w3.org/2000/svg">
<g id="Frame">
<path id="Vector" d="M5.6761 15.667C5.6761 18.5021 7.98516 20.8112 10.8203 20.8112C12.051 20.811 13.2407 20.3683 14.1721 19.5637L16.1188 22.9407C14.5816 24.0657 12.7253 24.6705 10.8203 24.667C5.84936 24.667 1.82031 20.6379 1.82031 15.667C1.82031 10.696 5.84936 6.66699 10.8203 6.66699C11.4115 6.66691 12.0013 6.72494 12.5812 6.84025L10.8203 10.5228C7.98516 10.5228 5.6761 12.8318 5.6761 15.667ZM17.4723 11.9818H14.7821C14.8546 11.5596 15.116 11.3234 15.6452 11.0556L16.1398 10.8036C17.025 10.35 17.4975 9.83651 17.4975 8.99857C17.4975 8.4725 17.2928 8.05668 16.8864 7.75741C16.48 7.45815 16.0012 7.31009 15.4405 7.31009C15.0067 7.30499 14.5808 7.42651 14.2151 7.65976C13.8465 7.88657 13.5724 8.17953 13.4023 8.54495L14.1804 9.32619C14.4828 8.71506 14.9207 8.41579 15.4972 8.41579C15.9855 8.41579 16.2847 8.66781 16.2847 9.01747C16.2847 9.31044 16.1398 9.553 15.5791 9.83651L15.2609 9.99087C14.571 10.3405 14.0922 10.7406 13.815 11.1942C13.5378 11.6479 13.4023 12.218 13.4023 12.9079V13.0969H17.4723V11.9818ZM17.1151 14.3822H12.6607L10.4336 18.238H14.8879L17.1151 22.0969L19.3422 18.238L17.1151 14.3822Z" fill="#050038"/>
</g>
</svg>
