<svg width="60" height="32" viewBox="0 0 60 32" fill="none" xmlns="http://www.w3.org/2000/svg">
<g id="Frame">
<path id="Vector" d="M7.90275 19.0433C7.84041 19.1056 7.73655 19.1834 7.59133 19.2768C7.44584 19.3703 7.25654 19.4637 7.02298 19.5572C6.78943 19.6505 6.50379 19.7308 6.16659 19.7985C5.82908 19.8658 5.44256 19.8997 5.00658 19.8997C4.16567 19.8997 3.43897 19.7646 2.82659 19.4949C2.21395 19.2252 1.70794 18.8486 1.3084 18.366C0.908709 17.8833 0.615539 17.3125 0.428688 16.6531C0.241836 15.994 0.148438 15.27 0.148438 14.481C0.148438 13.6923 0.24963 12.9628 0.452065 12.2933C0.654447 11.6237 0.958075 11.0452 1.3629 10.5571C1.76777 10.0693 2.27383 9.68779 2.88113 9.41261C3.48839 9.13775 4.20196 9 5.02211 9C5.42698 9 5.79289 9.03645 6.11989 9.10898C6.4469 9.18167 6.73227 9.26739 6.97634 9.36591C7.22009 9.4647 7.42257 9.56829 7.58359 9.67733C7.7444 9.78631 7.86635 9.87736 7.94955 9.94979C8.04295 10.033 8.12328 10.1316 8.1909 10.2456C8.25831 10.36 8.29209 10.4846 8.29209 10.6194C8.29209 10.8271 8.21422 11.0347 8.05854 11.2422C7.90285 11.45 7.73153 11.642 7.54463 11.8184C7.42006 11.6938 7.27996 11.5668 7.12428 11.4369C6.96854 11.3072 6.79461 11.1931 6.60263 11.0943C6.41045 10.9958 6.19243 10.9128 5.94863 10.8452C5.70462 10.7778 5.43216 10.7439 5.1312 10.7439C4.60176 10.7439 4.15803 10.8505 3.79986 11.0632C3.44174 11.2761 3.15365 11.5536 2.93568 11.8962C2.71771 12.2388 2.56198 12.6307 2.46853 13.0718C2.37513 13.5131 2.32842 13.962 2.32842 14.4187C2.32842 14.9068 2.37513 15.3739 2.46853 15.8201C2.56192 16.2664 2.72273 16.661 2.95126 17.0034C3.17943 17.346 3.47798 17.6212 3.84656 17.8287C4.21488 18.0365 4.67424 18.1401 5.2246 18.1401C5.51505 18.1401 5.78249 18.1039 6.0265 18.0312C6.27024 17.9586 6.48581 17.8703 6.67266 17.7663C6.85951 17.6628 7.02304 17.5539 7.16314 17.4395C7.30329 17.3253 7.42006 17.2268 7.51352 17.1436C7.5758 17.2164 7.64828 17.3047 7.73148 17.4084C7.81512 17.5131 7.89308 17.6223 7.96503 17.7354C8.03757 17.8497 8.09985 17.9638 8.15188 18.0778C8.20371 18.1922 8.2297 18.2959 8.2297 18.3892C8.2297 18.5243 8.20371 18.6384 8.15188 18.7318C8.0998 18.8253 8.01681 18.9292 7.90275 19.0433ZM15.9271 17.8491C15.9271 18.6741 16.047 19.2746 16.2873 19.6506C16.0994 19.7235 15.9244 19.7758 15.7626 19.8072C15.6005 19.8385 15.4309 19.8541 15.2535 19.8541C14.8776 19.8541 14.5929 19.781 14.3998 19.6348C14.2065 19.4888 14.0838 19.2799 14.0317 19.0082C13.8018 19.2487 13.499 19.4522 13.1231 19.6194C12.7471 19.7861 12.2875 19.8699 11.7446 19.8699C11.4626 19.8699 11.1807 19.8308 10.8987 19.753C10.6167 19.6745 10.3607 19.5472 10.1311 19.3705C9.90127 19.1934 9.71337 18.9565 9.56721 18.6598C9.42083 18.3631 9.34788 18.0014 9.34788 17.5747C9.34788 17.0438 9.47569 16.6116 9.73168 16.2786C9.98751 15.9454 10.3086 15.6826 10.6951 15.4899C11.0813 15.2975 11.4991 15.165 11.9483 15.0919C12.3972 15.019 12.8098 14.9723 13.1857 14.9512C13.3112 14.9409 13.4337 14.9355 13.5539 14.9355H13.8907V14.6504C13.8907 14.249 13.7835 13.9638 13.5695 13.795C13.3553 13.6261 13.008 13.5414 12.5278 13.5414C12.0787 13.5414 11.6792 13.6145 11.3295 13.7607C10.9795 13.907 10.6375 14.074 10.3034 14.262C10.1571 14.0845 10.0395 13.8887 9.951 13.6745C9.86221 13.4606 9.81786 13.3013 9.81786 13.1968C9.81786 13.0506 9.8986 12.9097 10.0607 12.7738C10.2224 12.6382 10.4444 12.5153 10.7264 12.4057C11.0084 12.296 11.332 12.2074 11.6977 12.1394C12.0631 12.0716 12.4495 12.0376 12.8569 12.0376C13.4208 12.0376 13.8985 12.0951 14.2901 12.2099C14.6818 12.3249 15.0002 12.5024 15.2457 12.7425C15.491 12.9829 15.666 13.2829 15.7704 13.6432C15.8747 14.0035 15.9271 14.424 15.9271 14.9042V17.8491ZM13.9219 16.032H13.7027C13.6294 16.032 13.5563 16.0374 13.4834 16.0477C13.2221 16.0688 12.9636 16.1 12.708 16.1416C12.4519 16.1835 12.2248 16.2566 12.0266 16.361C11.8281 16.4655 11.6663 16.6013 11.541 16.7682C11.4156 16.9354 11.3529 17.1496 11.3529 17.4106C11.3529 17.703 11.4364 17.9509 11.6035 18.1546C11.7705 18.3583 12.0525 18.4601 12.4495 18.4601C12.6477 18.4601 12.8358 18.4341 13.0134 18.3816C13.1909 18.3297 13.3475 18.2617 13.4834 18.1782C13.619 18.0946 13.7262 18.0033 13.8045 17.9039C13.8828 17.8048 13.922 17.7135 13.922 17.6299V16.032H13.9219ZM19.8274 12.9461C19.9938 12.7478 20.2543 12.5466 20.6081 12.3429C20.9621 12.1393 21.4097 12.0375 21.9511 12.0375C22.3365 12.0375 22.7034 12.1028 23.0522 12.2333C23.4007 12.364 23.7106 12.5755 23.9812 12.8677C24.252 13.1602 24.468 13.5467 24.6294 14.0269C24.7908 14.5074 24.8715 15.0975 24.8715 15.797C24.8715 16.6115 24.7777 17.2827 24.5904 17.8099C24.4028 18.3375 24.161 18.7552 23.8644 19.0632C23.5677 19.3713 23.237 19.588 22.8728 19.7132C22.5083 19.8385 22.1439 19.9013 21.7797 19.9013C21.4777 19.9013 21.2147 19.8673 20.9911 19.7995C20.7671 19.7314 20.5772 19.656 20.421 19.5723C20.2649 19.4888 20.1452 19.4054 20.062 19.3216C19.9788 19.2382 19.9266 19.1806 19.9059 19.1492V23H17.7754V12.2567C17.8278 12.2465 17.891 12.236 17.9648 12.2255C18.028 12.2152 18.1017 12.2073 18.1859 12.2019C18.27 12.1968 18.37 12.1942 18.4857 12.1942C18.8328 12.1942 19.1274 12.2517 19.3695 12.3665C19.6114 12.4815 19.7642 12.6746 19.8274 12.9461ZM22.6471 15.844C22.6471 15.5307 22.6211 15.2385 22.5692 14.9668C22.5173 14.6954 22.4317 14.4604 22.3122 14.2619C22.1928 14.0636 22.0317 13.9094 21.8293 13.7997C21.6266 13.6901 21.3802 13.6354 21.0896 13.6354C20.6535 13.6354 20.3497 13.719 20.1783 13.8859C20.0071 14.0531 19.9214 14.236 19.9214 14.4342V17.7552C20.0043 17.8389 20.1521 17.9379 20.3651 18.0528C20.5781 18.1678 20.8245 18.225 21.105 18.225C21.6346 18.225 22.024 18.0164 22.2733 17.5985C22.5225 17.1809 22.6471 16.5959 22.6471 15.844ZM26.5158 18.5384C26.4426 18.3297 26.3956 18.1102 26.3748 17.8804C26.3538 17.6508 26.3435 17.4211 26.3435 17.1911V9.9227C26.4164 9.91245 26.4948 9.90194 26.5784 9.89137C26.6513 9.88112 26.7297 9.87333 26.8134 9.86789C26.8969 9.86277 26.9803 9.8601 27.064 9.8601C27.2309 9.8601 27.3982 9.87579 27.5653 9.90706C27.7322 9.93844 27.8837 10.0011 28.0197 10.095C28.1553 10.189 28.2649 10.3171 28.3485 10.4788C28.4321 10.6408 28.4738 10.8524 28.4738 11.1132V12.2254H30.667V13.8076H28.4738V17.1481C28.4738 17.8766 28.7715 18.2407 29.3668 18.2407C29.5129 18.2407 29.6512 18.2173 29.7819 18.1702C29.9124 18.1232 30.0298 18.0711 30.1344 18.0136C30.2387 17.9562 30.3302 17.8962 30.4085 17.8335C30.4868 17.7708 30.5416 17.7239 30.5729 17.6925C30.7296 17.9224 30.8495 18.1214 30.9332 18.2893C31.0167 18.4575 31.0585 18.6152 31.0585 18.7627C31.0585 18.8998 31.0038 19.0343 30.8941 19.166C30.7843 19.2977 30.6302 19.4191 30.4319 19.5297C30.2335 19.6403 29.9934 19.7299 29.7114 19.7985C29.4294 19.867 29.1212 19.9013 28.7871 19.9013C28.1395 19.9013 27.6357 19.7759 27.2754 19.5254C26.9152 19.2746 26.6618 18.9456 26.5158 18.5384ZM36.0626 18.3347C36.3245 18.3347 36.5551 18.3061 36.7544 18.2485C36.9534 18.1913 37.1315 18.1208 37.2888 18.0372C37.4458 17.9538 37.5822 17.8623 37.6975 17.7631C37.8128 17.6639 37.9175 17.5726 38.0121 17.4889C38.1376 17.6454 38.2686 17.8467 38.4049 18.0919C38.5411 18.3375 38.6093 18.5384 38.6093 18.695C38.6093 18.9248 38.4786 19.1337 38.2177 19.3216C37.9984 19.4888 37.6875 19.6324 37.2857 19.7524C36.8835 19.8724 36.4108 19.9325 35.868 19.9325C35.3769 19.9325 34.894 19.8699 34.419 19.7446C33.9437 19.6193 33.5207 19.3999 33.1501 19.0866C32.7793 18.7734 32.479 18.3531 32.2493 17.8257C32.0196 17.2983 31.9047 16.6327 31.9047 15.8284C31.9047 15.1704 32.0066 14.6041 32.2101 14.1288C32.4138 13.6537 32.6852 13.2594 33.0249 12.9461C33.364 12.6328 33.7478 12.4032 34.1761 12.2568C34.6042 12.1107 35.0429 12.0375 35.492 12.0375C36.0768 12.0375 36.5728 12.1291 36.9801 12.3117C37.3875 12.4945 37.7188 12.74 37.9749 13.0479C38.2306 13.356 38.4159 13.7085 38.5309 14.1053C38.6457 14.5023 38.7032 14.9198 38.7032 15.3584V15.5777C38.7032 15.6615 38.7006 15.75 38.6954 15.844C38.6901 15.9381 38.6849 16.0296 38.6798 16.1181C38.6744 16.2071 38.6665 16.2775 38.6564 16.3297H34.0351C34.077 16.9041 34.2551 17.3818 34.5695 17.7631C34.8836 18.1444 35.3814 18.3347 36.0626 18.3347ZM36.7765 15.1547C36.7765 14.6535 36.6792 14.2462 36.4849 13.9329C36.2906 13.6197 35.9412 13.4629 35.4373 13.4629C35.0065 13.4629 34.6626 13.6118 34.4053 13.9094C34.1478 14.2071 34.0195 14.6222 34.0195 15.1547H36.7765ZM42.4107 12.9856C42.4732 12.8925 42.5567 12.7889 42.6613 12.6748C42.7655 12.5608 42.8936 12.4572 43.0451 12.364C43.1964 12.2708 43.3635 12.1929 43.5464 12.1308C43.7289 12.0686 43.9248 12.0375 44.1339 12.0375C44.2591 12.0375 44.3923 12.048 44.5332 12.0686C44.6742 12.0894 44.8046 12.1283 44.9248 12.1851C45.0448 12.2422 45.1415 12.3197 45.2146 12.4181C45.2876 12.5166 45.3243 12.6382 45.3243 12.7831C45.3243 13.011 45.2667 13.2726 45.152 13.5681C45.0369 13.8637 44.9223 14.1158 44.8074 14.3246C44.6297 14.1784 44.4522 14.0662 44.2747 13.9878C44.0971 13.9095 43.8882 13.8703 43.6481 13.8703C43.3244 13.8703 43.0529 13.9646 42.8337 14.153C42.6142 14.3415 42.5046 14.5667 42.5046 14.8285V19.8996H40.3743V12.2567C40.4264 12.2465 40.489 12.236 40.5622 12.2255C40.6248 12.2152 40.6979 12.2073 40.7815 12.2019C40.865 12.1968 40.9641 12.1942 41.0791 12.1942C41.4132 12.1942 41.703 12.2589 41.9485 12.3883C42.1937 12.5174 42.348 12.7167 42.4107 12.9856ZM48.4677 12.9856C48.5303 12.8925 48.6138 12.7889 48.7183 12.6748C48.8226 12.5608 48.9506 12.4572 49.1021 12.364C49.2534 12.2708 49.4205 12.1929 49.6034 12.1308C49.786 12.0686 49.9818 12.0375 50.1908 12.0375C50.3161 12.0375 50.4492 12.048 50.5902 12.0686C50.7311 12.0894 50.8617 12.1283 50.9818 12.1851C51.1019 12.2422 51.1984 12.3197 51.2718 12.4181C51.3447 12.5166 51.3814 12.6382 51.3814 12.7831C51.3814 13.011 51.3237 13.2726 51.2091 13.5681C51.0939 13.8637 50.9792 14.1158 50.8644 14.3246C50.6868 14.1784 50.5091 14.0662 50.3317 13.9878C50.1542 13.9095 49.9453 13.8703 49.7052 13.8703C49.3814 13.8703 49.1099 13.9646 48.8906 14.153C48.6713 14.3415 48.5617 14.5667 48.5617 14.8285V19.8996H46.4313V12.2567C46.4834 12.2465 46.5461 12.236 46.6193 12.2255C46.682 12.2152 46.755 12.2073 46.8386 12.2019C46.922 12.1968 47.0211 12.1942 47.1361 12.1942C47.4704 12.1942 47.7601 12.2589 48.0055 12.3883C48.2508 12.5174 48.4049 12.7167 48.4677 12.9856ZM58.6342 17.8491C58.6342 18.6741 58.7542 19.2746 58.9945 19.6506C58.8065 19.7235 58.6316 19.7758 58.4698 19.8072C58.3078 19.8385 58.1381 19.8541 57.9607 19.8541C57.5846 19.8541 57.3001 19.781 57.107 19.6348C56.9135 19.4888 56.791 19.2799 56.7388 19.0082C56.509 19.2487 56.2062 19.4522 55.8302 19.6194C55.4543 19.7861 54.9946 19.8699 54.4518 19.8699C54.1698 19.8699 53.8879 19.8308 53.6058 19.753C53.3239 19.6745 53.0678 19.5472 52.8383 19.3705C52.6084 19.1934 52.4205 18.9565 52.2743 18.6598C52.128 18.3631 52.0551 18.0014 52.0551 17.5747C52.0551 17.0438 52.1827 16.6116 52.4389 16.2786C52.6946 15.9454 53.0158 15.6826 53.4023 15.4899C53.7885 15.2975 54.2062 15.165 54.6555 15.0919C55.1043 15.019 55.517 14.9723 55.8929 14.9512C56.0183 14.9409 56.1409 14.9355 56.2612 14.9355H56.5979V14.6504C56.5979 14.249 56.4906 13.9638 56.2767 13.795C56.0624 13.6261 55.7152 13.5414 55.235 13.5414C54.7859 13.5414 54.3865 13.6145 54.0367 13.7607C53.6867 13.907 53.3447 14.074 53.0106 14.262C52.8643 14.0845 52.7466 13.8887 52.6581 13.6745C52.5694 13.4606 52.525 13.3013 52.525 13.1968C52.525 13.0506 52.6058 12.9097 52.7678 12.7738C52.9296 12.6382 53.1516 12.5153 53.4335 12.4057C53.7156 12.296 54.0391 12.2074 54.4047 12.1394C54.7702 12.0716 55.1567 12.0376 55.564 12.0376C56.1279 12.0376 56.6057 12.0951 56.9973 12.2099C57.3889 12.3249 57.7073 12.5024 57.9528 12.7425C58.1981 12.9829 58.373 13.2829 58.4776 13.6432C58.5818 14.0035 58.6342 14.424 58.6342 14.9042V17.8491ZM56.6291 16.032H56.4098C56.3366 16.032 56.2635 16.0374 56.1906 16.0477C55.9294 16.0688 55.6708 16.1 55.4151 16.1416C55.1591 16.1835 54.932 16.2566 54.7337 16.361C54.5352 16.4655 54.3734 16.6013 54.2481 16.7682C54.1228 16.9354 54.0601 17.1496 54.0601 17.4106C54.0601 17.703 54.1436 17.9509 54.3107 18.1546C54.4777 18.3583 54.7598 18.4601 55.1567 18.4601C55.355 18.4601 55.543 18.4341 55.7206 18.3816C55.8981 18.3297 56.0547 18.2617 56.1906 18.1782C56.3261 18.0946 56.4334 18.0033 56.5117 17.9039C56.59 17.8048 56.6292 17.7135 56.6292 17.6299V16.032H56.6291Z" fill="#050038"/>
</g>
</svg>
