<svg width="60" height="32" viewBox="0 0 60 32" fill="none" xmlns="http://www.w3.org/2000/svg">
<g id="Frame">
<path id="Vector" d="M8.23087 19.0433C8.16853 19.1056 8.06467 19.1834 7.91945 19.2768C7.77396 19.3703 7.58466 19.4637 7.3511 19.5572C7.11755 19.6505 6.83191 19.7308 6.49471 19.7985C6.1572 19.8658 5.77068 19.8997 5.3347 19.8997C4.49379 19.8997 3.76709 19.7646 3.15471 19.4949C2.54207 19.2252 2.03606 18.8486 1.63652 18.366C1.23683 17.8833 0.943664 17.3125 0.756813 16.6531C0.569961 15.994 0.476562 15.27 0.476562 14.481C0.476562 13.6923 0.577755 12.9628 0.78019 12.2933C0.982572 11.6237 1.2862 11.0452 1.69102 10.5571C2.09589 10.0693 2.60195 9.68779 3.20925 9.41261C3.81651 9.13775 4.53008 9 5.35023 9C5.7551 9 6.12101 9.03645 6.44801 9.10898C6.77502 9.18167 7.06039 9.26739 7.30446 9.36591C7.54821 9.4647 7.75069 9.56829 7.91171 9.67733C8.07252 9.78631 8.19447 9.87736 8.27767 9.94979C8.37107 10.033 8.4514 10.1316 8.51902 10.2456C8.58643 10.36 8.62021 10.4846 8.62021 10.6194C8.62021 10.8271 8.54234 11.0347 8.38666 11.2422C8.23097 11.45 8.05965 11.642 7.87275 11.8184C7.74818 11.6938 7.60808 11.5668 7.4524 11.4369C7.29666 11.3072 7.12273 11.1931 6.93075 11.0943C6.73857 10.9958 6.52055 10.9128 6.27675 10.8452C6.03274 10.7778 5.76028 10.7439 5.45932 10.7439C4.92988 10.7439 4.48615 10.8505 4.12798 11.0632C3.76986 11.2761 3.48177 11.5536 3.2638 11.8962C3.04583 12.2388 2.8901 12.6307 2.79665 13.0718C2.70325 13.5131 2.65654 13.962 2.65654 14.4187C2.65654 14.9068 2.70325 15.3739 2.79665 15.8201C2.89004 16.2664 3.05085 16.661 3.27938 17.0034C3.50755 17.346 3.8061 17.6212 4.17468 17.8287C4.543 18.0365 5.00236 18.1401 5.55272 18.1401C5.84317 18.1401 6.11061 18.1039 6.35462 18.0312C6.59836 17.9586 6.81393 17.8703 7.00078 17.7663C7.18763 17.6628 7.35116 17.5539 7.49126 17.4395C7.63141 17.3253 7.74818 17.2268 7.84164 17.1436C7.90392 17.2164 7.9764 17.3047 8.0596 17.4084C8.14324 17.5131 8.2212 17.6223 8.29315 17.7354C8.36569 17.8497 8.42797 17.9638 8.48 18.0778C8.53183 18.1922 8.55782 18.2959 8.55782 18.3892C8.55782 18.5243 8.53183 18.6384 8.48 18.7318C8.42792 18.8253 8.34493 18.9292 8.23087 19.0433ZM16.2553 17.8491C16.2553 18.6741 16.3752 19.2746 16.6155 19.6506C16.4276 19.7235 16.2526 19.7758 16.0908 19.8072C15.9287 19.8385 15.7591 19.8541 15.5817 19.8541C15.2058 19.8541 14.9211 19.781 14.728 19.6348C14.5347 19.4888 14.412 19.2799 14.3599 19.0082C14.13 19.2487 13.8272 19.4522 13.4513 19.6194C13.0753 19.7861 12.6157 19.8699 12.0728 19.8699C11.7908 19.8699 11.5089 19.8308 11.2269 19.753C10.9449 19.6745 10.6889 19.5472 10.4592 19.3705C10.2294 19.1934 10.0415 18.9565 9.89533 18.6598C9.74895 18.3631 9.676 18.0014 9.676 17.5747C9.676 17.0438 9.80381 16.6116 10.0598 16.2786C10.3156 15.9454 10.6368 15.6826 11.0233 15.4899C11.4095 15.2975 11.8273 15.165 12.2765 15.0919C12.7254 15.019 13.138 14.9723 13.5139 14.9512C13.6394 14.9409 13.7619 14.9355 13.8821 14.9355H14.2189V14.6504C14.2189 14.249 14.1117 13.9638 13.8977 13.795C13.6835 13.6261 13.3362 13.5414 12.856 13.5414C12.4069 13.5414 12.0074 13.6145 11.6577 13.7607C11.3077 13.907 10.9657 14.074 10.6316 14.262C10.4853 14.0845 10.3677 13.8887 10.2791 13.6745C10.1903 13.4606 10.146 13.3013 10.146 13.1968C10.146 13.0506 10.2267 12.9097 10.3888 12.7738C10.5506 12.6382 10.7726 12.5153 11.0546 12.4057C11.3366 12.296 11.6602 12.2074 12.0259 12.1394C12.3913 12.0716 12.7777 12.0376 13.1851 12.0376C13.749 12.0376 14.2267 12.0951 14.6183 12.2099C15.01 12.3249 15.3284 12.5024 15.5739 12.7425C15.8192 12.9829 15.9942 13.2829 16.0986 13.6432C16.2029 14.0035 16.2553 14.424 16.2553 14.9042V17.8491ZM14.2501 16.032H14.0309C13.9576 16.032 13.8845 16.0374 13.8116 16.0477C13.5503 16.0688 13.2918 16.1 13.0362 16.1416C12.7801 16.1835 12.553 16.2566 12.3548 16.361C12.1563 16.4655 11.9945 16.6013 11.8692 16.7682C11.7438 16.9354 11.6811 17.1496 11.6811 17.4106C11.6811 17.703 11.7646 17.9509 11.9317 18.1546C12.0987 18.3583 12.3807 18.4601 12.7777 18.4601C12.9759 18.4601 13.164 18.4341 13.3416 18.3816C13.5191 18.3297 13.6757 18.2617 13.8116 18.1782C13.9472 18.0946 14.0544 18.0033 14.1327 17.9039C14.211 17.8048 14.2502 17.7135 14.2502 17.6299V16.032H14.2501ZM20.1556 12.9461C20.322 12.7478 20.5825 12.5466 20.9363 12.3429C21.2903 12.1393 21.7379 12.0375 22.2793 12.0375C22.6647 12.0375 23.0316 12.1028 23.3804 12.2333C23.7289 12.364 24.0388 12.5755 24.3094 12.8677C24.5802 13.1602 24.7962 13.5467 24.9576 14.0269C25.119 14.5074 25.1997 15.0975 25.1997 15.797C25.1997 16.6115 25.1059 17.2827 24.9186 17.8099C24.731 18.3375 24.4892 18.7552 24.1926 19.0632C23.8959 19.3713 23.5652 19.588 23.201 19.7132C22.8365 19.8385 22.4721 19.9013 22.1079 19.9013C21.8059 19.9013 21.5429 19.8673 21.3193 19.7995C21.0953 19.7314 20.9054 19.656 20.7492 19.5723C20.5931 19.4888 20.4734 19.4054 20.3902 19.3216C20.307 19.2382 20.2548 19.1806 20.2341 19.1492V23H18.1036V12.2567C18.156 12.2465 18.2192 12.236 18.293 12.2255C18.3562 12.2152 18.4299 12.2073 18.5141 12.2019C18.5982 12.1968 18.6982 12.1942 18.8139 12.1942C19.161 12.1942 19.4556 12.2517 19.6977 12.3665C19.9396 12.4815 20.0924 12.6746 20.1556 12.9461ZM22.9753 15.844C22.9753 15.5307 22.9493 15.2385 22.8974 14.9668C22.8455 14.6954 22.7599 14.4604 22.6404 14.2619C22.521 14.0636 22.3599 13.9094 22.1575 13.7997C21.9548 13.6901 21.7084 13.6354 21.4178 13.6354C20.9817 13.6354 20.6779 13.719 20.5065 13.8859C20.3353 14.0531 20.2496 14.236 20.2496 14.4342V17.7552C20.3325 17.8389 20.4803 17.9379 20.6933 18.0528C20.9063 18.1678 21.1527 18.225 21.4332 18.225C21.9628 18.225 22.3522 18.0164 22.6015 17.5985C22.8507 17.1809 22.9753 16.5959 22.9753 15.844ZM26.844 18.5384C26.7708 18.3297 26.7238 18.1102 26.703 17.8804C26.682 17.6508 26.6717 17.4211 26.6717 17.1911V9.9227C26.7446 9.91245 26.823 9.90194 26.9066 9.89137C26.9795 9.88112 27.0579 9.87333 27.1416 9.86789C27.2251 9.86277 27.3085 9.8601 27.3922 9.8601C27.5591 9.8601 27.7264 9.87579 27.8935 9.90706C28.0604 9.93844 28.2119 10.0011 28.3479 10.095C28.4835 10.189 28.5931 10.3171 28.6767 10.4788C28.7603 10.6408 28.802 10.8524 28.802 11.1132V12.2254H30.9952V13.8076H28.802V17.1481C28.802 17.8766 29.0997 18.2407 29.695 18.2407C29.8411 18.2407 29.9794 18.2173 30.1101 18.1702C30.2406 18.1232 30.358 18.0711 30.4626 18.0136C30.5669 17.9562 30.6584 17.8962 30.7367 17.8335C30.815 17.7708 30.8698 17.7239 30.9011 17.6925C31.0578 17.9224 31.1777 18.1214 31.2614 18.2893C31.3449 18.4575 31.3867 18.6152 31.3867 18.7627C31.3867 18.8998 31.332 19.0343 31.2223 19.166C31.1125 19.2977 30.9584 19.4191 30.7601 19.5297C30.5617 19.6403 30.3216 19.7299 30.0396 19.7985C29.7576 19.867 29.4494 19.9013 29.1153 19.9013C28.4677 19.9013 27.9639 19.7759 27.6036 19.5254C27.2434 19.2746 26.99 18.9456 26.844 18.5384ZM36.3908 18.3347C36.6527 18.3347 36.8833 18.3061 37.0826 18.2485C37.2816 18.1913 37.4597 18.1208 37.617 18.0372C37.774 17.9538 37.9104 17.8623 38.0257 17.7631C38.141 17.6639 38.2457 17.5726 38.3403 17.4889C38.4658 17.6454 38.5968 17.8467 38.7331 18.0919C38.8693 18.3375 38.9375 18.5384 38.9375 18.695C38.9375 18.9248 38.8068 19.1337 38.5459 19.3216C38.3266 19.4888 38.0157 19.6324 37.6139 19.7524C37.2117 19.8724 36.739 19.9325 36.1962 19.9325C35.7051 19.9325 35.2222 19.8699 34.7472 19.7446C34.2719 19.6193 33.8489 19.3999 33.4783 19.0866C33.1075 18.7734 32.8072 18.3531 32.5775 17.8257C32.3478 17.2983 32.2329 16.6327 32.2329 15.8284C32.2329 15.1704 32.3348 14.6041 32.5383 14.1288C32.742 13.6537 33.0134 13.2594 33.3531 12.9461C33.6922 12.6328 34.076 12.4032 34.5043 12.2568C34.9324 12.1107 35.3711 12.0375 35.8202 12.0375C36.405 12.0375 36.901 12.1291 37.3083 12.3117C37.7157 12.4945 38.047 12.74 38.3031 13.0479C38.5588 13.356 38.7441 13.7085 38.8591 14.1053C38.9739 14.5023 39.0314 14.9198 39.0314 15.3584V15.5777C39.0314 15.6615 39.0288 15.75 39.0236 15.844C39.0183 15.9381 39.0131 16.0296 39.008 16.1181C39.0026 16.2071 38.9947 16.2775 38.9846 16.3297H34.3633C34.4052 16.9041 34.5833 17.3818 34.8977 17.7631C35.2118 18.1444 35.7096 18.3347 36.3908 18.3347ZM37.1047 15.1547C37.1047 14.6535 37.0074 14.2462 36.8131 13.9329C36.6188 13.6197 36.2694 13.4629 35.7655 13.4629C35.3347 13.4629 34.9908 13.6118 34.7335 13.9094C34.476 14.2071 34.3477 14.6222 34.3477 15.1547H37.1047ZM42.7389 12.9856C42.8014 12.8925 42.8849 12.7889 42.9895 12.6748C43.0937 12.5608 43.2218 12.4572 43.3733 12.364C43.5246 12.2708 43.6917 12.1929 43.8746 12.1308C44.0571 12.0686 44.253 12.0375 44.4621 12.0375C44.5873 12.0375 44.7205 12.048 44.8614 12.0686C45.0024 12.0894 45.1328 12.1283 45.253 12.1851C45.373 12.2422 45.4697 12.3197 45.5428 12.4181C45.6158 12.5166 45.6525 12.6382 45.6525 12.7831C45.6525 13.011 45.5949 13.2726 45.4802 13.5681C45.3651 13.8637 45.2505 14.1158 45.1356 14.3246C44.9579 14.1784 44.7804 14.0662 44.6029 13.9878C44.4253 13.9095 44.2164 13.8703 43.9763 13.8703C43.6526 13.8703 43.3811 13.9646 43.1619 14.153C42.9424 14.3415 42.8328 14.5667 42.8328 14.8285V19.8996H40.7025V12.2567C40.7546 12.2465 40.8172 12.236 40.8904 12.2255C40.953 12.2152 41.0261 12.2073 41.1097 12.2019C41.1932 12.1968 41.2923 12.1942 41.4073 12.1942C41.7414 12.1942 42.0312 12.2589 42.2767 12.3883C42.5219 12.5174 42.6762 12.7167 42.7389 12.9856ZM48.7959 12.9856C48.8585 12.8925 48.942 12.7889 49.0465 12.6748C49.1508 12.5608 49.2788 12.4572 49.4303 12.364C49.5816 12.2708 49.7487 12.1929 49.9316 12.1308C50.1142 12.0686 50.31 12.0375 50.519 12.0375C50.6443 12.0375 50.7774 12.048 50.9184 12.0686C51.0593 12.0894 51.1899 12.1283 51.31 12.1851C51.4301 12.2422 51.5266 12.3197 51.6 12.4181C51.6729 12.5166 51.7096 12.6382 51.7096 12.7831C51.7096 13.011 51.6519 13.2726 51.5373 13.5681C51.4221 13.8637 51.3074 14.1158 51.1926 14.3246C51.015 14.1784 50.8373 14.0662 50.6599 13.9878C50.4824 13.9095 50.2735 13.8703 50.0334 13.8703C49.7096 13.8703 49.4381 13.9646 49.2188 14.153C48.9995 14.3415 48.8899 14.5667 48.8899 14.8285V19.8996H46.7595V12.2567C46.8116 12.2465 46.8743 12.236 46.9475 12.2255C47.0102 12.2152 47.0832 12.2073 47.1668 12.2019C47.2502 12.1968 47.3493 12.1942 47.4643 12.1942C47.7986 12.1942 48.0883 12.2589 48.3337 12.3883C48.579 12.5174 48.7331 12.7167 48.7959 12.9856ZM58.9624 17.8491C58.9624 18.6741 59.0824 19.2746 59.3227 19.6506C59.1347 19.7235 58.9598 19.7758 58.798 19.8072C58.636 19.8385 58.4663 19.8541 58.2889 19.8541C57.9128 19.8541 57.6283 19.781 57.4352 19.6348C57.2417 19.4888 57.1192 19.2799 57.067 19.0082C56.8372 19.2487 56.5344 19.4522 56.1584 19.6194C55.7825 19.7861 55.3228 19.8699 54.78 19.8699C54.498 19.8699 54.2161 19.8308 53.934 19.753C53.6521 19.6745 53.396 19.5472 53.1665 19.3705C52.9366 19.1934 52.7487 18.9565 52.6025 18.6598C52.4562 18.3631 52.3833 18.0014 52.3833 17.5747C52.3833 17.0438 52.5109 16.6116 52.7671 16.2786C53.0228 15.9454 53.344 15.6826 53.7305 15.4899C54.1167 15.2975 54.5344 15.165 54.9837 15.0919C55.4325 15.019 55.8452 14.9723 56.2211 14.9512C56.3465 14.9409 56.4691 14.9355 56.5894 14.9355H56.9261V14.6504C56.9261 14.249 56.8188 13.9638 56.6049 13.795C56.3906 13.6261 56.0434 13.5414 55.5632 13.5414C55.1141 13.5414 54.7147 13.6145 54.3649 13.7607C54.0149 13.907 53.6729 14.074 53.3388 14.262C53.1925 14.0845 53.0748 13.8887 52.9863 13.6745C52.8976 13.4606 52.8532 13.3013 52.8532 13.1968C52.8532 13.0506 52.934 12.9097 53.096 12.7738C53.2578 12.6382 53.4798 12.5153 53.7617 12.4057C54.0438 12.296 54.3673 12.2074 54.7329 12.1394C55.0984 12.0716 55.4849 12.0376 55.8922 12.0376C56.4561 12.0376 56.9339 12.0951 57.3255 12.2099C57.7171 12.3249 58.0355 12.5024 58.281 12.7425C58.5263 12.9829 58.7012 13.2829 58.8058 13.6432C58.91 14.0035 58.9624 14.424 58.9624 14.9042V17.8491ZM56.9573 16.032H56.738C56.6648 16.032 56.5917 16.0374 56.5188 16.0477C56.2576 16.0688 55.999 16.1 55.7433 16.1416C55.4873 16.1835 55.2602 16.2566 55.0619 16.361C54.8634 16.4655 54.7016 16.6013 54.5763 16.7682C54.451 16.9354 54.3883 17.1496 54.3883 17.4106C54.3883 17.703 54.4718 17.9509 54.6389 18.1546C54.8059 18.3583 55.088 18.4601 55.4849 18.4601C55.6832 18.4601 55.8712 18.4341 56.0488 18.3816C56.2263 18.3297 56.3829 18.2617 56.5188 18.1782C56.6543 18.0946 56.7616 18.0033 56.8399 17.9039C56.9182 17.8048 56.9574 17.7135 56.9574 17.6299V16.032H56.9573Z" fill="#050038"/>
</g>
</svg>
