<svg width="106" height="15" viewBox="0 0 106 15" fill="none" xmlns="http://www.w3.org/2000/svg">
<g clip-path="url(#clip0_0_19)">
<path d="M4.55348 14.4733L4.55352 14.4732L4.54739 14.4687C4.50184 14.4349 4.48306 14.4034 4.47423 14.3509C4.46254 14.2814 4.46728 14.1521 4.54147 13.9396H4.54148L4.54243 13.9368L6.04819 9.54076L6.16964 9.18621L5.86339 8.97017L2.01614 6.2562L2.01615 6.25619L2.01361 6.25442C1.82317 6.12184 1.73544 6.0175 1.70022 5.95123C1.67523 5.90424 1.67508 5.87871 1.68884 5.83904L1.68982 5.83615C1.7027 5.79825 1.72184 5.77049 1.77893 5.74203C1.85079 5.70622 1.98664 5.6705 2.21867 5.67346L2.22204 5.67348L6.94104 5.70177L7.30672 5.70396L7.41961 5.35613L8.85291 0.940157C8.92607 0.71931 9.00154 0.605668 9.05601 0.551868C9.09694 0.511449 9.12824 0.5 9.17747 0.5C9.2329 0.5 9.26594 0.513343 9.30642 0.553054C9.36079 0.606384 9.43604 0.719241 9.50924 0.940201C9.50937 0.940619 9.50951 0.941037 9.50965 0.941455L10.9425 5.35613L11.0554 5.70396L11.4211 5.70177L16.1401 5.67349L16.1435 5.67345C16.3755 5.6705 16.5114 5.70622 16.5832 5.74204C16.6389 5.76978 16.6585 5.79686 16.6713 5.83331C16.6849 5.87639 16.683 5.90607 16.6582 5.95314C16.6235 6.01918 16.5374 6.12294 16.3486 6.2544L16.3485 6.25439L16.346 6.2562L12.4988 8.97017L12.1925 9.18621L12.314 9.54076L13.8197 13.9368L13.8207 13.9396C13.8949 14.1521 13.8996 14.2814 13.8879 14.3509C13.8791 14.4034 13.8603 14.4349 13.8148 14.4687L13.8133 14.4698C13.7768 14.4971 13.7485 14.506 13.6905 14.4964C13.611 14.4831 13.4799 14.4314 13.2869 14.2941C13.2866 14.2938 13.2863 14.2936 13.2859 14.2934L9.46963 11.5456L9.1772 11.335L8.88495 11.5459L5.07625 14.2934C5.07584 14.2936 5.07544 14.2939 5.07503 14.2942C4.88339 14.4305 4.75044 14.4828 4.66933 14.4963C4.60838 14.5064 4.58294 14.4958 4.55348 14.4733Z" fill="#9747FF" stroke="#9747FF"/>
</g>
<g clip-path="url(#clip1_0_19)">
<path d="M26.5535 14.4733L26.5535 14.4732L26.5474 14.4687C26.5018 14.4349 26.4831 14.4034 26.4742 14.3509C26.4625 14.2814 26.4673 14.1521 26.5415 13.9396H26.5415L26.5424 13.9368L28.0482 9.54076L28.1696 9.18621L27.8634 8.97017L24.0161 6.2562L24.0162 6.25619L24.0136 6.25442C23.8232 6.12184 23.7354 6.0175 23.7002 5.95123C23.6752 5.90424 23.6751 5.87871 23.6888 5.83904L23.6898 5.83615C23.7027 5.79825 23.7218 5.77049 23.7789 5.74203C23.8508 5.70622 23.9866 5.6705 24.2187 5.67346L24.222 5.67348L28.941 5.70177L29.3067 5.70396L29.4196 5.35613L30.8529 0.940157C30.9261 0.71931 31.0015 0.605668 31.056 0.551868C31.0969 0.511449 31.1282 0.5 31.1775 0.5C31.2329 0.5 31.2659 0.513343 31.3064 0.553054C31.3608 0.606384 31.436 0.719241 31.5092 0.940201C31.5094 0.940619 31.5095 0.941037 31.5097 0.941455L32.9425 5.35613L33.0554 5.70396L33.4211 5.70177L38.1401 5.67349L38.1435 5.67345C38.3755 5.6705 38.5114 5.70622 38.5832 5.74204C38.6389 5.76978 38.6585 5.79686 38.6713 5.83331C38.6849 5.87639 38.683 5.90607 38.6582 5.95314C38.6235 6.01918 38.5374 6.12294 38.3486 6.2544L38.3485 6.25439L38.346 6.2562L34.4988 8.97017L34.1925 9.18621L34.314 9.54076L35.8197 13.9368L35.8207 13.9396C35.8949 14.1521 35.8996 14.2814 35.8879 14.3509C35.8791 14.4034 35.8603 14.4349 35.8148 14.4687L35.8133 14.4698C35.7768 14.4971 35.7485 14.506 35.6905 14.4964C35.611 14.4831 35.4799 14.4314 35.2869 14.2941C35.2866 14.2938 35.2863 14.2936 35.2859 14.2934L31.4696 11.5456L31.1772 11.335L30.885 11.5459L27.0763 14.2934C27.0758 14.2936 27.0754 14.2939 27.075 14.2942C26.8834 14.4305 26.7504 14.4828 26.6693 14.4963C26.6084 14.5064 26.5829 14.4958 26.5535 14.4733Z" fill="#9747FF" stroke="#9747FF"/>
</g>
<g clip-path="url(#clip2_0_19)">
<path d="M48.5535 14.4733L48.5535 14.4732L48.5474 14.4687C48.5019 14.4349 48.4831 14.4034 48.4742 14.3509C48.4626 14.2814 48.4673 14.1521 48.5415 13.9396H48.5415L48.5424 13.9368L50.0482 9.54076L50.1697 9.18621L49.8634 8.97017L46.0162 6.2562L46.0162 6.25619L46.0136 6.25442C45.8232 6.12184 45.7355 6.0175 45.7002 5.95123C45.6752 5.90424 45.6751 5.87871 45.6889 5.83904L45.6898 5.83615C45.7027 5.79825 45.7219 5.77049 45.7789 5.74203C45.8508 5.70622 45.9867 5.6705 46.2187 5.67346L46.2221 5.67348L50.9411 5.70177L51.3067 5.70396L51.4196 5.35613L52.8529 0.940157C52.9261 0.71931 53.0016 0.605668 53.056 0.551868C53.097 0.511449 53.1283 0.5 53.1775 0.5C53.2329 0.5 53.266 0.513343 53.3064 0.553054C53.3608 0.606384 53.4361 0.719241 53.5093 0.940201C53.5094 0.940619 53.5095 0.941037 53.5097 0.941455L54.9425 5.35613L55.0554 5.70396L55.4211 5.70177L60.1401 5.67349L60.1435 5.67345C60.3755 5.6705 60.5114 5.70622 60.5832 5.74204C60.6389 5.76978 60.6585 5.79686 60.6713 5.83331C60.6849 5.87639 60.683 5.90607 60.6582 5.95314C60.6235 6.01918 60.5374 6.12294 60.3486 6.2544L60.3485 6.25439L60.346 6.2562L56.4988 8.97017L56.1925 9.18621L56.314 9.54076L57.8197 13.9368L57.8207 13.9396C57.8949 14.1521 57.8996 14.2814 57.8879 14.3509C57.8791 14.4034 57.8603 14.4349 57.8148 14.4687L57.8133 14.4698C57.7768 14.4971 57.7485 14.506 57.6905 14.4964C57.611 14.4831 57.4799 14.4314 57.2869 14.2941C57.2866 14.2938 57.2863 14.2936 57.2859 14.2934L53.4696 11.5456L53.1772 11.335L52.885 11.5459L49.0763 14.2934C49.0759 14.2936 49.0755 14.2939 49.075 14.2942C48.8834 14.4305 48.7505 14.4828 48.6693 14.4963C48.6084 14.5064 48.583 14.4958 48.5535 14.4733Z" fill="#9747FF" stroke="#9747FF"/>
</g>
<g clip-path="url(#clip3_0_19)">
<path d="M70.5535 14.4733L70.5535 14.4732L70.5474 14.4687C70.5019 14.4349 70.4831 14.4034 70.4742 14.3509C70.4626 14.2814 70.4673 14.1521 70.5415 13.9396H70.5415L70.5424 13.9368L72.0482 9.54076L72.1697 9.18621L71.8634 8.97017L68.0162 6.2562L68.0162 6.25619L68.0136 6.25442C67.8232 6.12184 67.7355 6.0175 67.7002 5.95123C67.6752 5.90424 67.6751 5.87871 67.6889 5.83904L67.6898 5.83615C67.7027 5.79825 67.7219 5.77049 67.7789 5.74203C67.8508 5.70622 67.9867 5.6705 68.2187 5.67346L68.2221 5.67348L72.9411 5.70177L73.3067 5.70396L73.4196 5.35613L74.8529 0.940157C74.9261 0.71931 75.0016 0.605668 75.056 0.551868C75.097 0.511449 75.1283 0.5 75.1775 0.5C75.2329 0.5 75.266 0.513343 75.3064 0.553054C75.3608 0.606384 75.4361 0.719241 75.5093 0.940201C75.5094 0.940619 75.5095 0.941037 75.5097 0.941455L76.9425 5.35613L77.0554 5.70396L77.4211 5.70177L82.1401 5.67349L82.1435 5.67345C82.3755 5.6705 82.5114 5.70622 82.5832 5.74204C82.6389 5.76978 82.6585 5.79686 82.6713 5.83331C82.6849 5.87639 82.683 5.90607 82.6582 5.95314C82.6235 6.01918 82.5374 6.12294 82.3486 6.2544L82.3485 6.25439L82.346 6.2562L78.4988 8.97017L78.1925 9.18621L78.314 9.54076L79.8197 13.9368L79.8207 13.9396C79.8949 14.1521 79.8996 14.2814 79.8879 14.3509C79.8791 14.4034 79.8603 14.4349 79.8148 14.4687L79.8133 14.4698C79.7768 14.4971 79.7485 14.506 79.6905 14.4964C79.611 14.4831 79.4799 14.4314 79.2869 14.2941C79.2866 14.2938 79.2863 14.2936 79.2859 14.2934L75.4696 11.5456L75.1772 11.335L74.885 11.5459L71.0763 14.2934C71.0759 14.2936 71.0755 14.2939 71.075 14.2942C70.8834 14.4305 70.7505 14.4828 70.6693 14.4963C70.6084 14.5064 70.583 14.4958 70.5535 14.4733Z" fill="#9747FF" stroke="#9747FF"/>
</g>
<g clip-path="url(#clip4_0_19)">
<path d="M92.5535 14.4733L92.5535 14.4732L92.5474 14.4687C92.5019 14.4349 92.4831 14.4034 92.4742 14.3509C92.4626 14.2814 92.4673 14.1521 92.5415 13.9396H92.5415L92.5424 13.9368L94.0482 9.54076C94.1202 9.33063 94.0449 9.09821 93.8634 8.97017L90.0162 6.2562L90.0162 6.25619L90.0136 6.25442C89.8232 6.12184 89.7355 6.0175 89.7002 5.95123C89.6752 5.90424 89.6751 5.87871 89.6889 5.83904L89.6898 5.83615C89.7027 5.79825 89.7219 5.77049 89.7789 5.74203C89.8508 5.70622 89.9867 5.6705 90.2187 5.67346L90.2221 5.67348L94.9411 5.70177C95.1588 5.70307 95.3524 5.56327 95.4196 5.35613L96.8529 0.940157C96.9261 0.71931 97.0016 0.605668 97.056 0.551868C97.097 0.511449 97.1283 0.5 97.1775 0.5C97.2329 0.5 97.266 0.513343 97.3064 0.553054C97.3608 0.606384 97.4361 0.719241 97.5093 0.940201C97.5094 0.940619 97.5095 0.941037 97.5097 0.941455L98.9425 5.35613C99.0098 5.56327 99.2033 5.70307 99.4211 5.70177L104.14 5.67349L104.143 5.67345C104.375 5.6705 104.511 5.70622 104.583 5.74204C104.639 5.76978 104.658 5.79686 104.671 5.83331C104.685 5.87639 104.683 5.90607 104.658 5.95314C104.623 6.01918 104.537 6.12294 104.349 6.2544L104.348 6.25439L104.346 6.2562L100.499 8.97017C100.317 9.09821 100.242 9.33063 100.314 9.54076L101.82 13.9368L101.821 13.9396C101.895 14.1521 101.9 14.2814 101.888 14.3509C101.879 14.4034 101.86 14.4349 101.815 14.4687L101.813 14.4698C101.777 14.4971 101.748 14.506 101.69 14.4964C101.611 14.4831 101.48 14.4314 101.287 14.2941C101.287 14.2938 101.286 14.2936 101.286 14.2934L97.4696 11.5456C97.295 11.4198 97.0595 11.42 96.885 11.5459L93.0763 14.2934C93.0758 14.2937 93.0754 14.294 93.075 14.2942C92.8834 14.4305 92.7505 14.4828 92.6693 14.4963C92.6084 14.5064 92.583 14.4958 92.5535 14.4733Z" stroke="#9747FF" stroke-linejoin="round"/>
<mask id="mask0_0_19" style="mask-type:alpha" maskUnits="userSpaceOnUse" x="89" y="0" width="17" height="16">
<path d="M92.5535 14.4733L92.5535 14.4732L92.5474 14.4687C92.5019 14.4349 92.4831 14.4034 92.4742 14.3509C92.4626 14.2814 92.4673 14.1521 92.5415 13.9396H92.5415L92.5424 13.9368L94.0482 9.54076C94.1202 9.33063 94.0449 9.09821 93.8634 8.97017L90.0162 6.2562L90.0162 6.25619L90.0136 6.25442C89.8232 6.12184 89.7355 6.0175 89.7002 5.95123C89.6752 5.90424 89.6751 5.87871 89.6889 5.83904L89.6898 5.83615C89.7027 5.79825 89.7219 5.77049 89.7789 5.74203C89.8508 5.70622 89.9867 5.6705 90.2187 5.67346L90.2221 5.67348L94.9411 5.70177C95.1588 5.70307 95.3524 5.56327 95.4196 5.35613L96.8529 0.940216C96.9261 0.71933 97.0015 0.605672 97.056 0.551868C97.097 0.511449 97.1283 0.5 97.1775 0.5C97.2329 0.5 97.266 0.513343 97.3064 0.553054C97.3608 0.606385 97.4361 0.719246 97.5093 0.940216C97.5094 0.940629 97.5095 0.941042 97.5097 0.941455L98.9425 5.35613C99.0098 5.56327 99.2033 5.70307 99.4211 5.70177L104.14 5.67349L104.143 5.67345C104.375 5.6705 104.511 5.70622 104.583 5.74204C104.639 5.76978 104.658 5.79685 104.671 5.83329C104.685 5.87638 104.683 5.90606 104.658 5.95314C104.623 6.01918 104.537 6.12294 104.349 6.2544L104.348 6.25439L104.346 6.2562L100.499 8.97017C100.317 9.09821 100.242 9.33063 100.314 9.54076L101.82 13.9368L101.821 13.9396C101.895 14.1521 101.9 14.2814 101.888 14.3509C101.879 14.4034 101.86 14.4349 101.815 14.4687L101.813 14.4698C101.777 14.4971 101.748 14.506 101.69 14.4964C101.611 14.4831 101.48 14.4314 101.287 14.2941C101.287 14.2938 101.286 14.2936 101.286 14.2934L97.4696 11.5456C97.295 11.4198 97.0595 11.42 96.885 11.5459L93.0763 14.2934C93.0759 14.2936 93.0755 14.2939 93.075 14.2942C92.8834 14.4305 92.7505 14.4828 92.6693 14.4963C92.6084 14.5064 92.583 14.4958 92.5535 14.4733Z" fill="white" stroke="white" stroke-linejoin="round"/>
</mask>
<g mask="url(#mask0_0_19)">
<path d="M97.061 0.75H88.3672V15.5H97.061V0.75Z" fill="#9747FF" stroke="#9747FF" stroke-width="1.5"/>
</g>
</g>
<defs>
<clipPath id="clip0_0_19">
<rect width="16" height="15" fill="white" transform="translate(1.17969)"/>
</clipPath>
<clipPath id="clip1_0_19">
<rect width="16" height="15" fill="white" transform="translate(23.1797)"/>
</clipPath>
<clipPath id="clip2_0_19">
<rect width="16" height="15" fill="white" transform="translate(45.1797)"/>
</clipPath>
<clipPath id="clip3_0_19">
<rect width="16" height="15" fill="white" transform="translate(67.1797)"/>
</clipPath>
<clipPath id="clip4_0_19">
<rect width="16" height="15" fill="white" transform="translate(89.1797)"/>
</clipPath>
</defs>
</svg>
