<svg width="46" height="46" viewBox="0 0 46 46" fill="none" xmlns="http://www.w3.org/2000/svg">
<g id="Frame">
<path id="Vector" d="M36.0186 0.609375H10.5186C5.13378 0.609375 0.768555 4.9746 0.768555 10.3594V35.8594C0.768555 41.2441 5.13378 45.6094 10.5186 45.6094H36.0186C41.4033 45.6094 45.7686 41.2441 45.7686 35.8594V10.3594C45.7686 4.9746 41.4033 0.609375 36.0186 0.609375Z" fill="#FFD02F"/>
<path id="Vector_2" fill-rule="evenodd" clip-rule="evenodd" d="M32.0262 6.23438H27.0872L31.203 13.4665L22.1481 6.23438H17.2091L21.7366 15.0737L12.2701 6.23438H7.33105L12.2701 17.4844L7.33105 39.9844H12.2701L21.7366 15.8772L17.2091 39.9844H22.1481L31.203 14.2701L27.0872 39.9844H32.0262L41.0811 11.8594L32.0262 6.23438Z" fill="white"/>
</g>
</svg>
