<svg width="135" height="46" viewBox="0 0 135 46" fill="none" xmlns="http://www.w3.org/2000/svg">
<g id="Frame">
<path id="Vector" d="M126.948 1.24121H8.21305C4.35857 1.24121 1.23389 4.36589 1.23389 8.22038V37.9982C1.23389 41.8526 4.35857 44.9773 8.21305 44.9773H126.948C130.803 44.9773 133.927 41.8526 133.927 37.9982V8.22038C133.927 4.36589 130.803 1.24121 126.948 1.24121Z" fill="white"/>
<path id="Vector_2" d="M28.4279 23.4453C28.4399 22.5133 28.6875 21.5994 29.1476 20.7888C29.6076 19.9781 30.2653 19.297 31.0594 18.8088C30.5549 18.0884 29.8895 17.4955 29.1158 17.0772C28.3422 16.659 27.4816 16.427 26.6026 16.3994C24.7274 16.2026 22.9096 17.5215 21.954 17.5215C20.98 17.5215 19.5088 16.419 17.9246 16.4515C16.8998 16.4847 15.9011 16.7826 15.0258 17.3165C14.1504 17.8503 13.4283 18.6018 12.9298 19.4977C10.7702 23.2367 12.3811 28.7319 14.4498 31.7542C15.4849 33.2342 16.6945 34.8874 18.2773 34.8288C19.8262 34.7645 20.4047 33.8411 22.2743 33.8411C24.1266 33.8411 24.6693 34.8288 26.2842 34.7915C27.9462 34.7645 28.9934 33.3049 29.9921 31.8109C30.7358 30.7564 31.308 29.591 31.6877 28.3576C30.7221 27.9493 29.8981 27.2657 29.3184 26.3921C28.7388 25.5186 28.429 24.4937 28.4279 23.4453Z" fill="black"/>
<path id="Vector_3" d="M25.3768 14.4115C26.2829 13.3236 26.7294 11.9253 26.6213 10.5137C25.2368 10.659 23.958 11.3207 23.0395 12.3669C22.5905 12.8779 22.2466 13.4725 22.0274 14.1165C21.8083 14.7605 21.7182 15.4415 21.7624 16.1204C22.4548 16.1275 23.1399 15.9774 23.766 15.6814C24.3921 15.3854 24.9429 14.9512 25.3768 14.4115Z" fill="black"/>
<path id="Vector_4" d="M48.0076 31.0821H42.7221L41.4527 34.8301H39.214L44.2204 20.9634H46.5464L51.5529 34.8301H49.2759L48.0076 31.0821ZM43.2694 29.3526H47.4592L45.3938 23.2699H45.336L43.2694 29.3526Z" fill="black"/>
<path id="Vector_5" d="M62.3649 29.7755C62.3649 32.9172 60.6833 34.9357 58.1457 34.9357C57.5029 34.9693 56.8636 34.8212 56.3011 34.5085C55.7385 34.1956 55.2754 33.7307 54.9648 33.1669H54.9168V38.1744H52.8416V24.72H54.8502V26.4015H54.8884C55.2134 25.8404 55.6842 25.378 56.2511 25.0632C56.818 24.7484 57.4595 24.5933 58.1076 24.6142C60.6734 24.6142 62.3649 26.6425 62.3649 29.7755ZM60.2318 29.7755C60.2318 27.7286 59.1741 26.383 57.5601 26.383C55.9745 26.383 54.908 27.757 54.908 29.7755C54.908 31.8126 55.9745 33.1768 57.5601 33.1768C59.1741 33.1768 60.2318 31.8409 60.2318 29.7755Z" fill="black"/>
<path id="Vector_6" d="M73.4933 29.7755C73.4933 32.9172 71.8117 34.9357 69.2741 34.9357C68.6313 34.9693 67.992 34.8212 67.4295 34.5084C66.8669 34.1956 66.4037 33.7307 66.0931 33.1669H66.0451V38.1744H63.97V24.72H65.9786V26.4015H66.0168C66.3417 25.8404 66.8126 25.3779 67.3794 25.0632C67.9463 24.7484 68.5879 24.5933 69.2359 24.6142C71.8019 24.6142 73.4933 26.6425 73.4933 29.7755ZM71.3603 29.7755C71.3603 27.7286 70.3024 26.383 68.6885 26.383C67.103 26.383 66.0365 27.757 66.0365 29.7755C66.0365 31.8126 67.103 33.1768 68.6885 33.1768C70.3025 33.1768 71.3603 31.8409 71.3603 29.7755Z" fill="black"/>
<path id="Vector_7" d="M80.8468 30.9668C81.0006 32.3418 82.3364 33.2448 84.1619 33.2448C85.9111 33.2448 87.1695 32.3418 87.1695 31.102C87.1695 30.0256 86.4105 29.3812 84.6134 28.9395L82.8162 28.5066C80.27 27.8916 79.0879 26.7007 79.0879 24.7683C79.0879 22.3758 81.1729 20.7324 84.1335 20.7324C87.0637 20.7324 89.0724 22.3758 89.14 24.7683H87.0451C86.9198 23.3845 85.7759 22.5492 84.1041 22.5492C82.4324 22.5492 81.2884 23.3944 81.2884 24.6245C81.2884 25.6048 82.0191 26.1817 83.8064 26.6232L85.3341 26.9984C88.1792 27.6712 89.3614 28.8141 89.3614 30.8423C89.3614 33.4366 87.2949 35.0615 84.0081 35.0615C80.933 35.0615 78.8566 33.4748 78.7225 30.9667L80.8468 30.9668Z" fill="black"/>
<path id="Vector_8" d="M93.8409 22.3276V24.7202H95.7634V26.3635H93.8409V31.937C93.8409 32.8029 94.2252 33.2064 95.0702 33.2064C95.2991 33.2024 95.5271 33.1864 95.7532 33.1584V34.792C95.3735 34.863 94.9873 34.8951 94.6002 34.8879C92.5537 34.8879 91.7554 34.1191 91.7554 32.1584V26.3635H90.2855V24.7202H91.7554V22.3276H93.8409Z" fill="black"/>
<path id="Vector_9" d="M96.8754 29.7755C96.8754 26.5946 98.7495 24.5957 101.671 24.5957C104.602 24.5957 106.467 26.5945 106.467 29.7755C106.467 32.9652 104.612 34.9554 101.671 34.9554C98.7309 34.9554 96.8754 32.9652 96.8754 29.7755ZM104.352 29.7755C104.352 27.5935 103.352 26.3056 101.671 26.3056C99.989 26.3056 98.9905 27.6033 98.9905 29.7755C98.9905 31.9664 99.989 33.2444 101.671 33.2444C103.352 33.2444 104.352 31.9664 104.352 29.7755Z" fill="black"/>
<path id="Vector_10" d="M108.177 24.7204H110.156V26.441H110.204C110.338 25.9036 110.653 25.4287 111.096 25.0961C111.538 24.7634 112.083 24.5934 112.636 24.6145C112.875 24.6137 113.114 24.6397 113.347 24.692V26.633C113.045 26.5408 112.73 26.4984 112.415 26.5076C112.113 26.4954 111.813 26.5485 111.534 26.6634C111.254 26.7783 111.004 26.9522 110.798 27.1732C110.593 27.3942 110.437 27.657 110.343 27.9436C110.249 28.2302 110.218 28.5339 110.252 28.8336V34.8303H108.177V24.7204Z" fill="black"/>
<path id="Vector_11" d="M122.916 31.8605C122.637 33.6959 120.85 34.9554 118.563 34.9554C115.622 34.9554 113.797 32.9848 113.797 29.8236C113.797 26.6524 115.632 24.5957 118.475 24.5957C121.273 24.5957 123.031 26.5171 123.031 29.5825V30.2935H115.891V30.4189C115.859 30.791 115.905 31.1658 116.028 31.5185C116.151 31.8713 116.347 32.1937 116.605 32.4645C116.862 32.7354 117.175 32.9484 117.52 33.0894C117.866 33.2304 118.238 33.2963 118.611 33.2825C119.102 33.3285 119.594 33.215 120.015 32.9587C120.435 32.7025 120.762 32.3174 120.946 31.8605H122.916ZM115.902 28.8431H120.955C120.974 28.5086 120.924 28.1739 120.807 27.8598C120.69 27.5458 120.51 27.2593 120.276 27.0184C120.043 26.7775 119.763 26.5873 119.453 26.4597C119.144 26.3322 118.81 26.2701 118.475 26.2772C118.138 26.2753 117.803 26.3401 117.49 26.4683C117.177 26.5964 116.894 26.7852 116.653 27.0238C116.414 27.2623 116.224 27.5459 116.095 27.8582C115.967 28.1704 115.901 28.5052 115.902 28.8432V28.8431Z" fill="black"/>
<path id="Vector_12" d="M43.0092 10.5256C43.4442 10.4944 43.8808 10.5601 44.2874 10.718C44.694 10.876 45.0604 11.1222 45.3604 11.4389C45.6603 11.7556 45.8862 12.1349 46.0218 12.5496C46.1573 12.9641 46.1992 13.4036 46.1443 13.8363C46.1443 15.965 44.9939 17.1886 43.0092 17.1886H40.6024V10.5256H43.0092ZM41.6373 16.2463H42.8935C43.2044 16.2649 43.5156 16.2139 43.8043 16.0971C44.0929 15.9802 44.352 15.8006 44.5625 15.571C44.773 15.3414 44.9296 15.0678 45.021 14.7702C45.1124 14.4724 45.1363 14.158 45.0909 13.8499C45.133 13.543 45.1067 13.2306 45.0139 12.9351C44.9211 12.6396 44.764 12.3682 44.554 12.1405C44.3441 11.9128 44.0862 11.7343 43.7992 11.6179C43.5121 11.5015 43.2029 11.45 42.8935 11.4672H41.6373V16.2463Z" fill="black"/>
<path id="Vector_13" d="M47.313 14.6725C47.2813 14.342 47.3192 14.0086 47.424 13.6936C47.5288 13.3786 47.6982 13.089 47.9215 12.8435C48.1447 12.5978 48.4169 12.4015 48.7204 12.2672C49.024 12.1329 49.3523 12.0635 49.6842 12.0635C50.0162 12.0635 50.3445 12.1329 50.6481 12.2672C50.9516 12.4015 51.2237 12.5978 51.4471 12.8435C51.6703 13.089 51.8398 13.3786 51.9445 13.6936C52.0493 14.0086 52.0872 14.342 52.0555 14.6725C52.0877 15.0032 52.0504 15.3371 51.9458 15.6526C51.8413 15.9681 51.672 16.2582 51.4486 16.5044C51.2254 16.7505 50.953 16.9471 50.6491 17.0818C50.3453 17.2163 50.0166 17.2858 49.6842 17.2858C49.3519 17.2858 49.0232 17.2163 48.7194 17.0818C48.4155 16.9471 48.1431 16.7505 47.9198 16.5044C47.6965 16.2582 47.5272 15.9681 47.4226 15.6526C47.3181 15.3371 47.2808 15.0032 47.313 14.6725ZM51.0348 14.6725C51.0348 13.5825 50.5452 12.9451 49.6859 12.9451C48.8234 12.9451 48.3381 13.5825 48.3381 14.6725C48.3381 15.7712 48.8234 16.4036 49.6859 16.4036C50.5453 16.4036 51.0348 15.7668 51.0348 14.6725Z" fill="black"/>
<path id="Vector_14" d="M58.3601 17.1884H57.3307L56.2915 13.4851H56.2129L55.178 17.1884H54.1584L52.7725 12.1602H53.7789L54.6797 15.997H54.7539L55.7876 12.1602H56.7396L57.7735 15.997H57.8519L58.7483 12.1602H59.7406L58.3601 17.1884Z" fill="black"/>
<path id="Vector_15" d="M60.9058 12.1606H61.8611V12.9594H61.9352C62.061 12.6725 62.2731 12.432 62.5421 12.2714C62.8111 12.1108 63.1235 12.0381 63.4357 12.0636C63.6804 12.0451 63.9261 12.0821 64.1545 12.1715C64.383 12.2609 64.5883 12.4006 64.7556 12.5802C64.9227 12.7598 65.0473 12.9748 65.1201 13.2091C65.1929 13.4434 65.212 13.691 65.1761 13.9337V17.1888H64.1837V14.1829C64.1837 13.3749 63.8326 12.973 63.0987 12.973C62.9326 12.9653 62.7668 12.9935 62.6127 13.0559C62.4585 13.1182 62.3196 13.2132 62.2056 13.3342C62.0916 13.4552 62.005 13.5995 61.952 13.7571C61.8988 13.9147 61.8805 14.0819 61.8981 14.2473V17.1889H60.9058V12.1606Z" fill="black"/>
<path id="Vector_16" d="M66.7581 10.1973H67.7504V17.1884H66.7581V10.1973Z" fill="black"/>
<path id="Vector_17" d="M69.1301 14.6726C69.0986 14.3421 69.1363 14.0087 69.2411 13.6937C69.346 13.3787 69.5154 13.0891 69.7388 12.8435C69.962 12.5978 70.2342 12.4015 70.5377 12.2672C70.8414 12.1329 71.1697 12.0635 71.5016 12.0635C71.8336 12.0635 72.1619 12.1329 72.4655 12.2672C72.7691 12.4015 73.0412 12.5978 73.2646 12.8435C73.4878 13.0891 73.6573 13.3787 73.7621 13.6937C73.8669 14.0087 73.9048 14.3421 73.8731 14.6726C73.9053 15.0034 73.8679 15.3372 73.7634 15.6527C73.6589 15.9682 73.4895 16.2583 73.2661 16.5045C73.0428 16.7506 72.7704 16.9472 72.4665 17.0818C72.1627 17.2164 71.834 17.2859 71.5016 17.2859C71.1693 17.2859 70.8406 17.2164 70.5367 17.0818C70.2328 16.9472 69.9604 16.7506 69.7371 16.5045C69.5138 16.2583 69.3444 15.9682 69.2398 15.6527C69.1353 15.3372 69.0979 15.0034 69.1301 14.6726ZM72.8519 14.6726C72.8519 13.5826 72.3623 12.9452 71.503 12.9452C70.6404 12.9452 70.1552 13.5826 70.1552 14.6726C70.1552 15.7713 70.6405 16.4037 71.503 16.4037C72.3623 16.4037 72.8519 15.7669 72.8519 14.6726Z" fill="black"/>
<path id="Vector_18" d="M74.9167 15.7668C74.9167 14.8617 75.5907 14.3399 76.787 14.2657L78.149 14.1873V13.7532C78.149 13.2221 77.7978 12.9223 77.1196 12.9223C76.5656 12.9223 76.1817 13.1256 76.0717 13.4812H75.1109C75.2123 12.6174 76.0248 12.0635 77.1653 12.0635C78.426 12.0635 79.137 12.691 79.137 13.7532V17.1888H78.1817V16.4822H78.1032C77.9438 16.7356 77.72 16.9423 77.4547 17.081C77.1893 17.2197 76.8919 17.2855 76.5929 17.2717C76.3818 17.2937 76.1684 17.2711 75.9666 17.2055C75.7648 17.14 75.5788 17.0329 75.4209 16.8911C75.263 16.7493 75.1365 16.576 75.0497 16.3824C74.9629 16.1887 74.9176 15.9791 74.9167 15.7668ZM78.149 15.3372V14.9167L76.9211 14.9953C76.2286 15.0416 75.9146 15.2772 75.9146 15.7205C75.9146 16.173 76.3072 16.4363 76.847 16.4363C77.0052 16.4523 77.165 16.4364 77.3168 16.3894C77.4687 16.3425 77.6096 16.2653 77.731 16.1628C77.8525 16.0602 77.9521 15.9343 78.0239 15.7924C78.0957 15.6506 78.1382 15.4957 78.149 15.3372Z" fill="black"/>
<path id="Vector_19" d="M80.4419 14.6721C80.4419 13.0833 81.2587 12.0767 82.5291 12.0767C82.8434 12.0623 83.1553 12.1376 83.4283 12.2937C83.7013 12.45 83.9243 12.6806 84.0711 12.9589H84.1452V10.1973H85.1376V17.1884H84.1867V16.394H84.1082C83.9501 16.6703 83.7193 16.8982 83.441 17.0529C83.1627 17.2074 82.8473 17.283 82.5291 17.2713C81.25 17.2713 80.4419 16.2648 80.4419 14.6721ZM81.467 14.6721C81.467 15.7386 81.9698 16.3803 82.8105 16.3803C83.6469 16.3803 84.1638 15.7293 84.1638 14.6765C84.1638 13.6285 83.6415 12.9683 82.8105 12.9683C81.9752 12.9683 81.467 13.6144 81.467 14.6721Z" fill="black"/>
<path id="Vector_20" d="M89.2425 14.6725C89.2109 14.342 89.2488 14.0086 89.3536 13.6936C89.4583 13.3786 89.6278 13.089 89.851 12.8435C90.0743 12.5978 90.3465 12.4015 90.65 12.2672C90.9535 12.1329 91.2819 12.0635 91.6138 12.0635C91.9458 12.0635 92.274 12.1329 92.5776 12.2672C92.8812 12.4015 93.1533 12.5978 93.3766 12.8435C93.5999 13.089 93.7693 13.3786 93.8744 13.6936C93.9786 14.0086 94.0167 14.342 93.9851 14.6725C94.0177 15.0032 93.9795 15.3371 93.8753 15.6526C93.7709 15.9681 93.6015 16.2582 93.3782 16.5044C93.1549 16.7505 92.8826 16.9471 92.5787 17.0818C92.2748 17.2163 91.9462 17.2858 91.6138 17.2858C91.2815 17.2858 90.9528 17.2163 90.6489 17.0818C90.3451 16.9471 90.0727 16.7505 89.8494 16.5044C89.626 16.2582 89.4567 15.9681 89.3522 15.6526C89.2477 15.3371 89.2103 15.0032 89.2425 14.6725ZM92.9644 14.6725C92.9644 13.5825 92.4747 12.9451 91.6155 12.9451C90.7529 12.9451 90.2676 13.5825 90.2676 14.6725C90.2676 15.7712 90.7529 16.4036 91.6155 16.4036C92.4747 16.4036 92.9644 15.7668 92.9644 14.6725Z" fill="black"/>
<path id="Vector_21" d="M95.3176 12.1606H96.2733V12.9594H96.3477C96.4734 12.6725 96.6855 12.432 96.9545 12.2714C97.2234 12.1108 97.5361 12.0381 97.8478 12.0636C98.0925 12.0451 98.3382 12.0821 98.5671 12.1715C98.7951 12.2609 99.0008 12.4006 99.1683 12.5802C99.3348 12.7598 99.4595 12.9748 99.5321 13.2091C99.6056 13.4434 99.6242 13.691 99.5889 13.9337V17.1888H98.596V14.1829C98.596 13.3749 98.2451 12.973 97.5109 12.973C97.3453 12.9653 97.1787 12.9935 97.0252 13.0559C96.8707 13.1182 96.7321 13.2132 96.6176 13.3342C96.5041 13.4552 96.4175 13.5995 96.3645 13.7571C96.3115 13.9147 96.2928 14.0819 96.3105 14.2473V17.1889H95.3176V12.1606Z" fill="black"/>
<path id="Vector_22" d="M105.195 10.9082V12.1831H106.285V13.0189H105.195V15.6044C105.195 16.1311 105.413 16.3618 105.906 16.3618C106.033 16.3614 106.16 16.3537 106.285 16.3389V17.1654C106.107 17.1974 105.926 17.2143 105.745 17.2162C104.642 17.2162 104.203 16.8279 104.203 15.8586V13.0189H103.404V12.183H104.203V10.9082H105.195Z" fill="black"/>
<path id="Vector_23" d="M107.641 10.1973H108.625V12.9682H108.703C108.835 12.6787 109.053 12.4367 109.327 12.2756C109.602 12.1144 109.919 12.0417 110.236 12.0675C110.479 12.0542 110.723 12.0949 110.948 12.1865C111.174 12.2781 111.377 12.4184 111.543 12.5974C111.708 12.7765 111.832 12.9899 111.906 13.2223C111.979 13.4547 112 13.7004 111.968 13.942V17.1884H110.974V14.1868C110.974 13.3837 110.6 12.9769 109.899 12.9769C109.728 12.963 109.557 12.9864 109.396 13.0456C109.236 13.1049 109.09 13.1985 108.97 13.3199C108.849 13.4414 108.757 13.5877 108.698 13.7485C108.64 13.9095 108.618 14.0812 108.633 14.2517V17.1884H107.641V10.1973Z" fill="black"/>
<path id="Vector_24" d="M117.752 15.8312C117.617 16.2908 117.325 16.6883 116.927 16.9542C116.529 17.2201 116.049 17.3376 115.574 17.2859C115.243 17.2947 114.913 17.2312 114.609 17.1C114.305 16.9688 114.032 16.7729 113.811 16.5259C113.59 16.279 113.426 15.987 113.329 15.67C113.233 15.3531 113.206 15.0188 113.251 14.6906C113.207 14.3613 113.234 14.0264 113.33 13.7085C113.427 13.3906 113.591 13.0972 113.811 12.8481C114.03 12.599 114.301 12.4 114.604 12.2647C114.908 12.1293 115.237 12.0608 115.569 12.0636C116.968 12.0636 117.812 13.0194 117.812 14.5984V14.9447H114.262V15.0003C114.246 15.1848 114.269 15.3706 114.33 15.5456C114.39 15.7206 114.487 15.8811 114.613 16.0167C114.739 16.1523 114.892 16.2601 115.062 16.3331C115.232 16.4062 115.416 16.4428 115.601 16.4408C115.838 16.4693 116.078 16.4266 116.291 16.318C116.505 16.2095 116.68 16.04 116.797 15.8312H117.752ZM114.262 14.2107H116.801C116.814 14.042 116.791 13.8725 116.734 13.7132C116.678 13.5538 116.587 13.408 116.471 13.2854C116.355 13.1627 116.213 13.0658 116.057 13.0008C115.902 12.9359 115.733 12.9043 115.564 12.9081C115.393 12.906 115.222 12.9383 115.063 13.003C114.904 13.0676 114.76 13.1636 114.638 13.2849C114.517 13.4064 114.421 13.5508 114.356 13.7098C114.292 13.8688 114.259 14.0391 114.262 14.2107Z" fill="black"/>
<path id="Vector_25" d="M126.948 1.24121H8.21305C4.35857 1.24121 1.23389 4.36589 1.23389 8.22038V37.9982C1.23389 41.8526 4.35857 44.9773 8.21305 44.9773H126.948C130.803 44.9773 133.927 41.8526 133.927 37.9982V8.22038C133.927 4.36589 130.803 1.24121 126.948 1.24121Z" stroke="#A6A6A6" stroke-width="0.930556"/>
</g>
</svg>
