<svg width="25" height="25" viewBox="0 0 25 25" fill="none" xmlns="http://www.w3.org/2000/svg">
<g id="Frame">
<path id="Vector" fill-rule="evenodd" clip-rule="evenodd" d="M24.7686 12.6094C24.7686 19.2368 19.3961 24.6094 12.7686 24.6094C6.1412 24.6094 0.768616 19.2368 0.768616 12.6094C0.768616 5.98196 6.1412 0.609375 12.7686 0.609375C19.3961 0.609375 24.7686 5.98196 24.7686 12.6094ZM6.89239 14.6094C6.8107 13.9542 6.76862 13.2867 6.76862 12.6094C6.76862 11.9321 6.81071 11.2646 6.89242 10.6094H2.96866C2.83748 11.2556 2.76862 11.9244 2.76862 12.6094C2.76862 13.2943 2.83748 13.9631 2.96866 14.6094H6.89239ZM7.27267 16.6094H3.60071C4.77822 19.3044 7.10924 21.38 9.9697 22.2124C8.73018 20.563 7.80207 18.6662 7.27267 16.6094ZM9.34838 16.6094H16.1889C15.5309 18.8203 14.3414 20.8023 12.7686 22.4074C11.1958 20.8023 10.0064 18.8203 9.34838 16.6094ZM16.6269 14.6094H8.9104C8.81698 13.9562 8.76862 13.2884 8.76862 12.6094C8.76862 11.9303 8.81698 11.2626 8.9104 10.6094H16.6269C16.7202 11.2626 16.7686 11.9303 16.7686 12.6094C16.7686 13.2884 16.7202 13.9562 16.6269 14.6094ZM18.6449 14.6094C18.7265 13.9542 18.7686 13.2867 18.7686 12.6094C18.7686 11.9321 18.7265 11.2646 18.6449 10.6094H22.5686C22.6998 11.2556 22.7686 11.9244 22.7686 12.6094C22.7686 13.2943 22.6998 13.9631 22.5686 14.6094H18.6449ZM18.2646 16.6094H21.9365C20.759 19.3044 18.4279 21.38 15.5675 22.2124C16.807 20.563 17.7351 18.6662 18.2646 16.6094ZM12.7686 2.81142C11.1958 4.41642 10.0064 6.39846 9.34838 8.60938H16.1889C15.5309 6.39846 14.3414 4.41642 12.7686 2.81142ZM15.5675 3.00635C16.807 4.65576 17.7351 6.55254 18.2645 8.60938H21.9365C20.759 5.91435 18.4279 3.83864 15.5675 3.00635ZM3.60071 8.60938H7.2727C7.8021 6.55254 8.73022 4.65576 9.96972 3.00635C7.10926 3.83864 4.77822 5.91435 3.60071 8.60938Z" fill="black"/>
</g>
</svg>
