<svg width="153" height="46" viewBox="0 0 153 46" fill="none" xmlns="http://www.w3.org/2000/svg">
<g id="Frame">
<path id="Vector" d="M144.933 1.19531H8.78598C4.92337 1.19531 1.79211 4.32657 1.79211 8.18918V38.0297C1.79211 41.8923 4.92337 45.0235 8.78598 45.0235H144.933C148.796 45.0235 151.927 41.8923 151.927 38.0297V8.18918C151.927 4.32657 148.796 1.19531 144.933 1.19531Z" fill="white"/>
<path id="Vector_2" d="M54.3867 12.1914C54.3867 13.129 54.1091 13.8755 53.5531 14.4325C52.9215 15.0947 52.0983 15.426 51.0865 15.426C50.1174 15.426 49.2934 15.0903 48.6159 14.4181C47.9371 13.7462 47.5984 12.9131 47.5984 11.919C47.5984 10.9246 47.9371 10.092 48.6159 9.41963C49.2934 8.74777 50.1174 8.41162 51.0865 8.41162C51.5673 8.41162 52.0277 8.50562 52.4647 8.69317C52.9018 8.88116 53.2524 9.1307 53.5147 9.44324L52.9245 10.0338C52.48 9.50266 51.8681 9.23734 51.0865 9.23734C50.3796 9.23734 49.7685 9.48565 49.2528 9.98261C48.7369 10.4802 48.4791 11.1253 48.4791 11.919C48.4791 12.7129 48.7369 13.358 49.2528 13.8555C49.7685 14.3525 50.3796 14.6008 51.0865 14.6008C51.8362 14.6008 52.4613 14.3511 52.9617 13.8512C53.2865 13.5254 53.4744 13.0726 53.5246 12.4912H51.0865V11.6848H54.34C54.3714 11.8601 54.3867 12.0284 54.3867 12.1914Z" fill="black"/>
<path id="Vector_3" d="M54.3875 12.1915H54.2756C54.2747 13.1077 54.0071 13.8192 53.4747 14.3535L53.4735 14.3544L53.4731 14.3552C52.8615 14.9947 52.0755 15.3129 51.0872 15.3142C50.1439 15.3129 49.3545 14.9912 48.6953 14.339C48.0376 13.6855 47.7122 12.8878 47.711 11.9191C47.7122 10.9501 48.0376 10.1528 48.6953 9.49973C49.3545 8.84712 50.1439 8.52495 51.0872 8.52361C51.5536 8.52361 51.9978 8.61459 52.4213 8.79598C52.8452 8.97871 53.1802 9.21819 53.4297 9.51551L53.5154 9.44333L53.4364 9.36422L52.8462 9.95517L52.9252 10.0338L53.0115 9.96222C52.5463 9.40484 51.8933 9.12385 51.0872 9.12553C50.3542 9.12463 49.7095 9.38649 49.1762 9.90235C48.6376 10.4199 48.3671 11.1013 48.3679 11.9191C48.3671 12.737 48.6376 13.4184 49.1762 13.936C49.7095 14.4518 50.3542 14.7137 51.0872 14.7128C51.8618 14.7142 52.5218 14.4514 53.0415 13.9304C53.3887 13.5824 53.5854 13.1002 53.6369 12.5009L53.6474 12.3794H51.1991V11.7968H54.3407V11.6849L54.2305 11.7046C54.2612 11.8742 54.2756 12.0354 54.2756 12.1915H54.3875H54.4994C54.4994 12.0214 54.4837 11.8467 54.4508 11.6648L54.4342 11.573H50.9753V12.4913V12.6032H53.5254V12.4913L53.414 12.4817C53.3646 13.0448 53.1853 13.4688 52.8833 13.7721C52.4025 14.2512 51.8124 14.4876 51.0872 14.4889C50.4066 14.4881 49.8292 14.2538 49.3313 13.7752C48.8383 13.2982 48.593 12.6894 48.5917 11.9191C48.593 11.149 48.8383 10.5401 49.3313 10.0631C49.8292 9.58455 50.4066 9.35023 51.0872 9.34933C51.8439 9.35112 52.4152 9.60111 52.8396 10.106L52.9183 10.1996L53.5946 9.52245L53.6671 9.44993L53.601 9.3716C53.3261 9.04384 52.9598 8.78367 52.5095 8.59053C52.0585 8.39683 51.5824 8.29981 51.0872 8.29981C50.0923 8.29891 49.2339 8.6486 48.5375 9.34061C47.8386 10.0313 47.4863 10.8994 47.4872 11.9191C47.4863 12.9385 47.8386 13.8071 48.5379 14.4982C49.2339 15.1897 50.0923 15.539 51.0872 15.538C52.1232 15.539 52.9826 15.1949 53.6347 14.5099L53.5538 14.4326L53.6329 14.5117C54.2126 13.9325 54.5002 13.15 54.4994 12.1915H54.3875Z" fill="black"/>
<path id="Vector_4" d="M59.5464 9.38684H56.4887V11.5157H59.2461V12.3225H56.4887V14.4513H59.5464V15.2761H55.6267V8.56201H59.5464V9.38684Z" fill="black"/>
<path id="Vector_5" d="M59.5452 9.38693V9.27502H56.3757V11.6277H59.133V12.2103L56.3757 12.2107V14.5633H59.4333V15.1643H55.7375V8.674H59.4333V9.38693H59.5452V9.27502V9.38693H59.6571V8.5621V8.4502H55.5137V15.3881H59.6571V14.4514V14.3395H56.5995V12.4345H59.3568V11.5158V11.4039H56.5995V9.49883H59.6571V9.38693H59.5452Z" fill="black"/>
<path id="Vector_6" d="M63.1845 15.2761H62.3212V9.38684H60.4459V8.56201H65.0597V9.38684H63.1845V15.2761Z" fill="black"/>
<path id="Vector_7" d="M63.1835 15.2762V15.1643H62.4321V9.27502H60.5568V8.674H64.9468V9.27502H63.0716V15.2762H63.1835V15.1643V15.2762H63.2954V9.49883H65.1706V8.5621V8.4502H60.333V9.38693V9.49883H62.2083V15.3881H63.1835H63.2954V15.2762H63.1835Z" fill="black"/>
<path id="Vector_8" d="M68.3977 15.2761V8.56201H69.2602V15.2761H68.3977Z" fill="black"/>
<path id="Vector_9" d="M68.3967 15.2762H68.5086V8.674H69.1473V15.1643H68.3967V15.2762H68.5086H68.3967V15.3881H69.2592H69.3711V8.4502H68.3967H68.2848V15.3881H68.3967V15.2762Z" fill="black"/>
<path id="Vector_10" d="M73.0869 15.2761H72.2236V9.38684H70.3484V8.56201H74.9621V9.38684H73.0869V15.2761Z" fill="black"/>
<path id="Vector_11" d="M73.0859 15.2762V15.1643H72.3345V9.27502H70.4593V8.674H74.8492V9.27502H72.974V15.2762H73.0859V15.1643V15.2762H73.1978V9.49883H75.073V8.5621V8.4502H70.2355V9.38693V9.49883H72.1107V15.3881H73.0859H73.1978V15.2762H73.0859Z" fill="black"/>
<path id="Vector_12" d="M79.4091 13.8464C79.906 14.3494 80.5141 14.6008 81.2332 14.6008C81.9523 14.6008 82.5607 14.3494 83.0569 13.8464C83.5543 13.3433 83.8035 12.7001 83.8035 11.919C83.8035 11.138 83.5543 10.4949 83.0569 9.99179C82.5607 9.48868 81.9523 9.23734 81.2332 9.23734C80.5141 9.23734 79.906 9.48868 79.4091 9.99179C78.9129 10.4949 78.6638 11.138 78.6638 11.919C78.6638 12.7001 78.9129 13.3433 79.4091 13.8464ZM83.695 14.4085C83.0349 15.0873 82.214 15.426 81.2332 15.426C80.2514 15.426 79.4309 15.0873 78.7723 14.4085C78.1117 13.7304 77.7831 12.9004 77.7831 11.919C77.7831 10.9377 78.1117 10.1076 78.7723 9.4297C79.4309 8.7508 80.2514 8.41162 81.2332 8.41162C82.2089 8.41162 83.0275 8.75259 83.6907 9.43407C84.3529 10.1156 84.6843 10.9438 84.6843 11.919C84.6843 12.9004 84.3537 13.7304 83.695 14.4085Z" fill="black"/>
<path id="Vector_13" d="M79.4099 13.8464L79.3303 13.9252C79.8458 14.4484 80.4887 14.7142 81.234 14.7128C81.9788 14.7142 82.6227 14.4484 83.1372 13.9252C83.656 13.4015 83.917 12.7239 83.9162 11.9191C83.917 11.1145 83.656 10.4369 83.1372 9.91321C82.6227 9.38996 81.9788 9.12419 81.234 9.12553C80.4887 9.12419 79.8458 9.38996 79.3303 9.91321C78.8127 10.4369 78.5514 11.1145 78.5528 11.9191C78.5514 12.7239 78.8127 13.4015 79.3303 13.9252L79.4099 13.8464L79.4895 13.7677C79.0148 13.2847 78.7774 12.6771 78.7766 11.9191C78.7774 11.1613 79.0148 10.5536 79.4895 10.0705C79.9685 9.58757 80.5407 9.35068 81.234 9.34933C81.9268 9.35068 82.5003 9.58757 82.9781 10.0705C83.4537 10.5536 83.691 11.1613 83.6919 11.9191C83.691 12.6771 83.4537 13.2847 82.9781 13.7677C82.5003 14.2508 81.9268 14.4876 81.234 14.4889C80.5407 14.4876 79.9685 14.2508 79.4895 13.7677L79.4099 13.8464ZM83.6959 14.4086L83.6158 14.3308C82.9742 14.9882 82.1896 15.3129 81.234 15.3142C80.278 15.3129 79.4934 14.9882 78.8529 14.3308L78.85 14.3273L78.8529 14.3308C78.2127 13.6711 77.8966 12.8756 77.8958 11.9191C77.8966 10.9627 78.2127 10.1672 78.8529 9.50756C79.4934 8.85014 80.278 8.52495 81.234 8.52361C82.1834 8.52495 82.9663 8.85148 83.6115 9.51238C84.2541 10.175 84.5719 10.9694 84.5732 11.9191C84.5719 12.8756 84.2549 13.6711 83.6158 14.3308L83.6959 14.4086L83.7763 14.4863C84.4546 13.7896 84.7977 12.9254 84.797 11.9191C84.7977 10.9186 84.4533 10.0562 83.7719 9.35638C83.09 8.65386 82.2358 8.29858 81.234 8.29981C80.2269 8.29858 79.3702 8.65218 78.6926 9.35201V9.35156C78.0129 10.0487 77.6711 10.9129 77.672 11.9191C77.6711 12.9254 78.0129 13.7896 78.6926 14.4867L78.6956 14.4899L78.6926 14.4863C79.3702 15.1861 80.2269 15.539 81.234 15.538C82.2407 15.539 83.0974 15.1861 83.7763 14.4863L83.6959 14.4086Z" fill="black"/>
<path id="Vector_14" d="M85.8951 15.2761V8.56201H86.9452L90.2082 13.7851H90.2453L90.2082 12.4912V8.56201H91.0715V15.2761H90.171L86.7572 9.79987H86.72L86.7572 11.0943V15.2761H85.8951Z" fill="black"/>
<path id="Vector_15" d="M85.896 15.2762H86.0079V8.674H86.8838L90.1468 13.8971H90.2461H90.361L90.3208 12.4896V8.674H90.9604V15.1643H90.2339L86.82 9.68805H86.7208H86.6058L86.646 11.0961V15.1643H85.896V15.2762H86.0079H85.896V15.3881H86.7579H86.8698V11.0925L86.8327 9.79693L86.7208 9.79996V9.91186H86.7579V9.79996L86.6631 9.85949L90.1097 15.3881H91.0723H91.1842V8.4502H90.2089H90.097V12.4927L90.1342 13.7882L90.2461 13.7852V13.6733H90.2089V13.7852L90.3039 13.7258L87.0079 8.4502H85.896H85.7841V15.3881H85.896V15.2762Z" fill="black"/>
<path id="Vector_16" d="M120.989 34.2994H123.077V20.3104H120.989V34.2994ZM139.796 25.3495L137.403 31.4145H137.332L134.847 25.3495H132.597L136.323 33.8265L134.199 38.5416H136.378L142.118 25.3495H139.796ZM127.955 32.7105C127.27 32.7105 126.317 32.3687 126.317 31.5225C126.317 30.4428 127.505 30.0288 128.53 30.0288C129.449 30.0288 129.88 30.2268 130.439 30.497C130.276 31.7927 129.16 32.7105 127.955 32.7105ZM128.207 25.0435C126.695 25.0435 125.13 25.7097 124.482 27.1854L126.335 27.9591C126.731 27.1854 127.469 26.9332 128.242 26.9332C129.322 26.9332 130.42 27.5814 130.439 28.7333V28.8771C130.06 28.6611 129.251 28.3372 128.26 28.3372C126.263 28.3372 124.229 29.4348 124.229 31.4866C124.229 33.3584 125.866 34.5644 127.702 34.5644C129.107 34.5644 129.88 33.9345 130.367 33.1967H130.439V34.2763H132.454V28.9129C132.454 26.4297 130.601 25.0435 128.207 25.0435ZM115.302 27.0525H112.333V22.2574H115.302C116.863 22.2574 117.75 23.5499 117.75 24.6549C117.75 25.739 116.863 27.0525 115.302 27.0525ZM115.249 20.3104H110.245V34.2994H112.333V28.9995H115.249C117.562 28.9995 119.838 27.324 119.838 24.6549C119.838 21.9859 117.562 20.3104 115.249 20.3104ZM87.9658 32.7131C86.5232 32.7131 85.3154 31.5054 85.3154 29.8466C85.3154 28.1703 86.5232 26.9441 87.9658 26.9441C89.3899 26.9441 90.5076 28.1703 90.5076 29.8466C90.5076 31.5054 89.3899 32.7131 87.9658 32.7131ZM90.3633 26.1329H90.2912C89.8227 25.5742 88.9208 25.0693 87.7852 25.0693C85.4055 25.0693 83.2244 27.1605 83.2244 29.8466C83.2244 32.5147 85.4055 34.588 87.7852 34.588C88.9208 34.588 89.8227 34.083 90.2912 33.5065H90.3633V34.1915C90.3633 36.0126 89.3899 36.986 87.8215 36.986C86.5416 36.986 85.7483 36.0663 85.4234 35.2913L83.6029 36.0484C84.1258 37.3103 85.514 38.8608 87.8215 38.8608C90.2733 38.8608 92.3465 37.4182 92.3465 33.903V25.3578H90.3633V26.1329ZM93.7886 34.2994H95.8795V20.3099H93.7886V34.2994ZM98.9624 29.6844C98.9084 27.8454 100.387 26.9082 101.45 26.9082C102.28 26.9082 102.983 27.3226 103.217 27.9181L98.9624 29.6844ZM105.453 28.0981C105.056 27.0341 103.848 25.0693 101.379 25.0693C98.9261 25.0693 96.8895 26.9983 96.8895 29.8287C96.8895 32.4968 98.9084 34.588 101.613 34.588C103.794 34.588 105.056 33.2538 105.58 32.4788L103.957 31.397C103.416 32.1904 102.677 32.7131 101.613 32.7131C100.549 32.7131 99.7924 32.2263 99.3047 31.2711L105.668 28.6388L105.453 28.0981ZM54.752 26.5296V28.5487H59.5833C59.4391 29.6844 59.0605 30.5136 58.4835 31.0906C57.7807 31.7939 56.6809 32.5689 54.752 32.5689C51.7773 32.5689 49.4518 30.1713 49.4518 27.1968C49.4518 24.2221 51.7773 21.8242 54.752 21.8242C56.3565 21.8242 57.528 22.4553 58.3935 23.2666L59.8176 21.8425C58.6099 20.6885 57.0052 19.8052 54.752 19.8052C50.6774 19.8052 47.2523 23.1224 47.2523 27.1968C47.2523 31.2711 50.6774 34.588 54.752 34.588C56.9515 34.588 58.6099 33.8672 59.9077 32.5147C61.2418 31.1807 61.6566 29.3058 61.6566 27.7917C61.6566 27.3226 61.6207 26.8903 61.5482 26.5296H54.752ZM67.1494 32.7131C65.7069 32.7131 64.4629 31.5233 64.4629 29.8287C64.4629 28.116 65.7069 26.9441 67.1494 26.9441C68.5914 26.9441 69.8354 28.116 69.8354 29.8287C69.8354 31.5233 68.5914 32.7131 67.1494 32.7131ZM67.1494 25.0693C64.5171 25.0693 62.3717 27.0704 62.3717 29.8287C62.3717 32.5689 64.5171 34.588 67.1494 34.588C69.7812 34.588 71.9267 32.5689 71.9267 29.8287C71.9267 27.0704 69.7812 25.0693 67.1494 25.0693ZM77.5711 32.7131C76.1292 32.7131 74.885 31.5233 74.885 29.8287C74.885 28.116 76.1292 26.9441 77.5711 26.9441C79.0131 26.9441 80.2572 28.116 80.2572 29.8287C80.2572 31.5233 79.0131 32.7131 77.5711 32.7131ZM77.5711 25.0693C74.9388 25.0693 72.7939 27.0704 72.7939 29.8287C72.7939 32.5689 74.9388 34.588 77.5711 34.588C80.203 34.588 82.3484 32.5689 82.3484 29.8287C82.3484 27.0704 80.203 25.0693 77.5711 25.0693Z" fill="black"/>
<path id="Vector_17" d="M13.0861 36.9733L13.0029 36.8938C12.6773 36.5492 12.4851 36.0142 12.4851 35.3215V35.4845V10.7363C12.4851 10.734 12.4851 10.7323 12.4851 10.7306C12.4851 10.7327 12.4851 10.7345 12.4851 10.7367V10.9002C12.4851 10.1501 12.7092 9.58493 13.0847 9.24609L26.9492 23.1102L13.0861 36.9733ZM12.4851 10.7293C12.4851 10.6676 12.4868 10.6078 12.4899 10.5487C12.4868 10.6073 12.4851 10.6676 12.4851 10.7293ZM12.4899 10.546C12.4899 10.5453 12.4899 10.5444 12.4902 10.5435C12.4899 10.5444 12.4899 10.5453 12.4899 10.546ZM12.4902 10.5382C12.4902 10.5378 12.4902 10.5374 12.4902 10.5369C12.4902 10.5374 12.4902 10.5378 12.4902 10.5382Z" fill="url(#paint0_linear_0_464)"/>
<path id="Vector_18" d="M31.5708 27.8973L31.6762 27.8374L37.1515 24.7264C37.6735 24.4296 38.0214 24.0699 38.195 23.6892C38.0218 24.0699 37.6738 24.4301 37.1515 24.7268L31.6762 27.8379L31.5708 27.8973ZM31.5722 27.7333L26.9501 23.1104L31.5717 18.4883L37.1515 21.6583C37.86 22.0609 38.2578 22.5798 38.3243 23.11C38.3243 23.1104 38.3243 23.1113 38.3243 23.1121C38.2578 23.6411 37.86 24.1604 37.1515 24.5629L31.5722 27.7333Z" fill="url(#paint1_linear_0_464)"/>
<path id="Vector_19" d="M14.074 37.5015C13.6867 37.5015 13.3488 37.3756 13.0853 37.1378L13.0857 37.1373C13.3493 37.3751 13.6876 37.5015 14.0749 37.5015C14.1085 37.5015 14.1426 37.5006 14.1772 37.4989C14.1422 37.5006 14.1076 37.5015 14.074 37.5015ZM14.0745 37.3376C13.6872 37.338 13.3493 37.2117 13.0857 36.9739V36.9735L26.9488 23.1104L31.5709 27.7332L15.3281 36.9621C14.8787 37.2169 14.4529 37.3376 14.0745 37.3376ZM13.0818 37.1347C13.0573 37.1125 13.0332 37.0889 13.0096 37.0644L13.0818 37.1347Z" fill="url(#paint2_linear_0_464)"/>
<path id="Vector_20" d="M26.9487 23.1105L13.0842 9.24645C13.3478 9.00911 13.6853 8.88321 14.0721 8.88321C14.4516 8.88321 14.8777 9.00429 15.328 9.25954L31.5703 18.4884L26.9487 23.1105ZM31.6749 18.384L15.328 9.09616C14.8777 8.8408 14.4516 8.71973 14.0721 8.71973C14.0704 8.71973 14.0692 8.71973 14.0673 8.71973C14.0695 8.71973 14.0712 8.71973 14.0739 8.71973C14.4525 8.71973 14.8782 8.84036 15.328 9.09572L31.6749 18.384Z" fill="url(#paint3_linear_0_464)"/>
<path id="Vector_21" d="M14.177 37.4987C14.5288 37.4786 14.9184 37.3574 15.3279 37.1254L31.5694 27.897L15.3279 37.1254C14.9186 37.3579 14.5288 37.4786 14.177 37.4987ZM13.085 37.1375L13.0816 37.1346C13.0828 37.1355 13.0842 37.1367 13.085 37.1375ZM13.0094 37.0642L13.0023 37.0573V37.0568C13.005 37.0594 13.0072 37.0619 13.0094 37.0642Z" fill="black"/>
<path id="Vector_22" d="M31.5707 27.8973L31.6761 27.8374L31.5707 27.8973Z" fill="url(#paint4_linear_0_464)"/>
<path id="Vector_23" d="M14.0747 37.5012C13.6874 37.5012 13.349 37.3748 13.0855 37.137L13.085 37.1375C13.0842 37.1366 13.0828 37.1354 13.0816 37.1344L13.0094 37.0641C13.0072 37.0619 13.005 37.0593 13.0023 37.0567L13.0855 36.9736C13.349 37.2114 13.687 37.3377 14.0742 37.3373C14.4528 37.3373 14.8785 37.2166 15.3279 36.9618L31.5707 27.7329L31.6747 27.837L31.5694 27.8968L15.3279 37.1253C14.9184 37.3574 14.5288 37.4784 14.177 37.4986C14.1424 37.5003 14.1083 37.5012 14.0747 37.5012Z" fill="url(#paint5_linear_0_464)"/>
<path id="Vector_24" d="M13.0029 37.0572C12.6773 36.7126 12.4851 36.1776 12.4851 35.4848V35.4844C12.4851 36.1776 12.6773 36.7121 13.0029 37.0567V37.0572Z" fill="black"/>
<path id="Vector_25" d="M13.0029 37.0567C12.6773 36.7121 12.4851 36.1776 12.4851 35.4844V35.3213C12.4851 36.0141 12.6773 36.5491 13.0029 36.8937L13.0861 36.9732L13.0029 37.0567Z" fill="url(#paint6_linear_0_464)"/>
<path id="Vector_26" d="M13.0023 37.0571L13.0855 36.9736V36.9739L13.0023 37.0571Z" fill="url(#paint7_linear_0_464)"/>
<path id="Vector_27" d="M38.1948 23.6887C38.2808 23.4998 38.3242 23.3057 38.3242 23.1116C38.3242 23.1113 38.3242 23.1108 38.3242 23.1108C38.3242 23.3053 38.2808 23.4993 38.1948 23.6887Z" fill="black"/>
<path id="Vector_28" d="M31.6747 27.8371L31.5707 27.733L37.15 24.5626C37.8586 24.1601 38.2564 23.6407 38.3228 23.1118C38.3228 23.306 38.2796 23.5 38.1935 23.6889C38.02 24.0696 37.672 24.4294 37.15 24.7261L31.6747 27.8371Z" fill="url(#paint8_linear_0_464)"/>
<path id="Vector_29" d="M38.3231 23.1103V23.1099C38.3226 22.5245 37.9315 21.9393 37.1502 21.4951L31.675 18.3842H31.6746L31.675 18.3838L37.1502 21.4947C37.9323 21.9388 38.324 22.525 38.3231 23.1103Z" fill="white"/>
<path id="Vector_30" d="M38.3233 23.11C38.2568 22.5798 37.8591 22.0609 37.1505 21.6582L31.5707 18.4883L31.6747 18.3843H31.6752L37.1505 21.4952C37.9316 21.9394 38.3228 22.5246 38.3233 23.11Z" fill="url(#paint9_linear_0_464)"/>
<path id="Vector_31" d="M12.4851 10.7309C12.4851 10.7305 12.4851 10.73 12.4851 10.7295C12.4851 10.73 12.4851 10.7305 12.4851 10.7309ZM12.4899 10.5491C12.4899 10.5482 12.4899 10.5473 12.4899 10.5464C12.4899 10.5473 12.4899 10.5482 12.4899 10.5491ZM12.4902 10.5438C12.4902 10.542 12.4902 10.5403 12.4902 10.5386C12.4902 10.5403 12.4902 10.542 12.4902 10.5438ZM12.4902 10.5373C12.555 9.38767 13.1801 8.72364 14.0643 8.71973C13.681 8.72196 13.347 8.84785 13.0856 9.08341V9.08296L13.0825 9.08609C13.055 9.11094 13.0288 9.13723 13.0029 9.16431C12.7092 9.47506 12.5239 9.94058 12.4902 10.5373Z" fill="white"/>
<path id="Vector_32" d="M12.4851 10.9001V10.7366C12.4851 10.7344 12.4851 10.7326 12.4851 10.7305C12.4851 10.73 12.4851 10.7296 12.4851 10.7292C12.4851 10.6675 12.4868 10.6072 12.4899 10.5486C12.4899 10.5477 12.4899 10.5469 12.4899 10.5459C12.4899 10.5452 12.4899 10.5443 12.4902 10.5434C12.4902 10.5416 12.4902 10.5399 12.4902 10.5381C12.4902 10.5376 12.4902 10.5373 12.4902 10.5368C12.5239 9.94014 12.7092 9.47462 13.0029 9.16387L13.0847 9.24601C12.7092 9.58485 12.4851 10.1499 12.4851 10.9001ZM13.0825 9.08565L13.0856 9.08252C13.0847 9.08386 13.0834 9.08476 13.0825 9.08565Z" fill="url(#paint10_linear_0_464)"/>
<path id="Vector_33" d="M31.5702 18.4884L15.3279 9.25954C14.8776 9.00429 14.4514 8.88321 14.072 8.88321C13.6852 8.88321 13.3477 9.0091 13.0842 9.24645L13.0023 9.16431C13.0282 9.13723 13.0544 9.11093 13.082 9.08609C13.0828 9.0852 13.0842 9.0843 13.085 9.08341C13.3464 8.84785 13.6804 8.72196 14.0637 8.71973C14.0646 8.71973 14.0659 8.71973 14.0673 8.71973C14.069 8.71973 14.0702 8.71973 14.072 8.71973C14.4514 8.71973 14.8776 8.8408 15.3279 9.09616L31.6747 18.384L31.6743 18.3843L31.5702 18.4884Z" fill="url(#paint11_linear_0_464)"/>
<path id="Vector_34" d="M144.933 1.19531H8.78598C4.92337 1.19531 1.79211 4.32657 1.79211 8.18918V38.0297C1.79211 41.8923 4.92337 45.0235 8.78598 45.0235H144.933C148.796 45.0235 151.927 41.8923 151.927 38.0297V8.18918C151.927 4.32657 148.796 1.19531 144.933 1.19531Z" stroke="#A6A6A6" stroke-width="0.932515"/>
</g>
<defs>
<linearGradient id="paint0_linear_0_464" x1="25.7198" y1="10.4753" x2="6.93988" y2="29.2552" gradientUnits="userSpaceOnUse">
<stop stop-color="#00A0FF"/>
<stop offset="0.00657445" stop-color="#00A1FF"/>
<stop offset="0.2601" stop-color="#00BEFF"/>
<stop offset="0.5122" stop-color="#00D2FF"/>
<stop offset="0.7604" stop-color="#00DFFF"/>
<stop offset="1" stop-color="#00E3FF"/>
</linearGradient>
<linearGradient id="paint1_linear_0_464" x1="39.1877" y1="23.1111" x2="12.1108" y2="23.1111" gradientUnits="userSpaceOnUse">
<stop stop-color="#FFE000"/>
<stop offset="0.4087" stop-color="#FFBD00"/>
<stop offset="0.7754" stop-color="#FFA500"/>
<stop offset="1" stop-color="#FF9C00"/>
</linearGradient>
<linearGradient id="paint2_linear_0_464" x1="29.1069" y1="25.6788" x2="3.63995" y2="51.1458" gradientUnits="userSpaceOnUse">
<stop stop-color="#FF3A44"/>
<stop offset="1" stop-color="#C31162"/>
</linearGradient>
<linearGradient id="paint3_linear_0_464" x1="9.49075" y1="0.926434" x2="20.8628" y2="12.2985" gradientUnits="userSpaceOnUse">
<stop stop-color="#32A071"/>
<stop offset="0.0685" stop-color="#2DA771"/>
<stop offset="0.4762" stop-color="#15CF74"/>
<stop offset="0.8009" stop-color="#06E775"/>
<stop offset="1" stop-color="#00F076"/>
</linearGradient>
<linearGradient id="paint4_linear_0_464" x1="39.1873" y1="23.1111" x2="12.1113" y2="23.1111" gradientUnits="userSpaceOnUse">
<stop stop-color="#CCB300"/>
<stop offset="0.4087" stop-color="#CC9700"/>
<stop offset="0.7754" stop-color="#CC8400"/>
<stop offset="1" stop-color="#CC7D00"/>
</linearGradient>
<linearGradient id="paint5_linear_0_464" x1="29.1067" y1="25.6785" x2="3.63976" y2="51.1455" gradientUnits="userSpaceOnUse">
<stop stop-color="#CC2E36"/>
<stop offset="1" stop-color="#9C0E4E"/>
</linearGradient>
<linearGradient id="paint6_linear_0_464" x1="25.7198" y1="10.4751" x2="6.93986" y2="29.255" gradientUnits="userSpaceOnUse">
<stop stop-color="#008DE0"/>
<stop offset="0.00657445" stop-color="#008DE0"/>
<stop offset="0.2601" stop-color="#00A7E0"/>
<stop offset="0.5122" stop-color="#00B8E0"/>
<stop offset="0.7604" stop-color="#00C4E0"/>
<stop offset="1" stop-color="#00C7E0"/>
</linearGradient>
<linearGradient id="paint7_linear_0_464" x1="29.107" y1="25.6789" x2="3.63981" y2="51.1462" gradientUnits="userSpaceOnUse">
<stop stop-color="#E0333C"/>
<stop offset="1" stop-color="#AB0F56"/>
</linearGradient>
<linearGradient id="paint8_linear_0_464" x1="39.1862" y1="23.1108" x2="12.1094" y2="23.1108" gradientUnits="userSpaceOnUse">
<stop stop-color="#E0C500"/>
<stop offset="0.4087" stop-color="#E0A600"/>
<stop offset="0.7754" stop-color="#E09100"/>
<stop offset="1" stop-color="#E08900"/>
</linearGradient>
<linearGradient id="paint9_linear_0_464" x1="39.1866" y1="23.1111" x2="12.1097" y2="23.1111" gradientUnits="userSpaceOnUse">
<stop stop-color="#FFE840"/>
<stop offset="0.4087" stop-color="#FFCE40"/>
<stop offset="0.7754" stop-color="#FFBC40"/>
<stop offset="1" stop-color="#FFB540"/>
</linearGradient>
<linearGradient id="paint10_linear_0_464" x1="25.7197" y1="10.4752" x2="6.93988" y2="29.255" gradientUnits="userSpaceOnUse">
<stop stop-color="#40B8FF"/>
<stop offset="0.00657445" stop-color="#40B9FF"/>
<stop offset="0.2601" stop-color="#40CEFF"/>
<stop offset="0.5122" stop-color="#40DDFF"/>
<stop offset="0.7604" stop-color="#40E7FF"/>
<stop offset="1" stop-color="#40EAFF"/>
</linearGradient>
<linearGradient id="paint11_linear_0_464" x1="9.49065" y1="0.926439" x2="20.8627" y2="12.2985" gradientUnits="userSpaceOnUse">
<stop stop-color="#65B895"/>
<stop offset="0.0685" stop-color="#62BD95"/>
<stop offset="0.4762" stop-color="#50DB97"/>
<stop offset="0.8009" stop-color="#44ED98"/>
<stop offset="1" stop-color="#40F498"/>
</linearGradient>
</defs>
</svg>
