<svg width="25" height="25" viewBox="0 0 25 25" fill="none" xmlns="http://www.w3.org/2000/svg">
<g id="Frame">
<path id="Vector" d="M9.43583 12.1094C9.43583 10.2685 10.9277 8.77577 12.7686 8.77577C14.6095 8.77577 16.1022 10.2685 16.1022 12.1094C16.1022 13.9503 14.6095 15.443 12.7686 15.443C10.9277 15.443 9.43583 13.9503 9.43583 12.1094ZM7.63373 12.1094C7.63373 14.9454 9.9326 17.2443 12.7686 17.2443C15.6046 17.2443 17.9035 14.9454 17.9035 12.1094C17.9035 9.27334 15.6046 6.97447 12.7686 6.97447C9.9326 6.97447 7.63373 9.27334 7.63373 12.1094ZM16.9067 6.77093C16.9067 7.43329 17.4439 7.97124 18.1071 7.97124C18.7694 7.97124 19.3074 7.43329 19.3074 6.77093C19.3074 6.10857 18.7702 5.57141 18.1071 5.57141C17.4439 5.57141 16.9067 6.10857 16.9067 6.77093ZM8.72823 20.2491C7.75327 20.2047 7.22339 20.0424 6.87121 19.905C6.40432 19.7233 6.07153 19.5068 5.72096 19.1571C5.37121 18.8073 5.15392 18.4745 4.97298 18.0076C4.83566 17.6554 4.67331 17.1256 4.62888 16.1506C4.58041 15.0965 4.57072 14.7798 4.57072 12.1094C4.57072 9.43894 4.58122 9.12311 4.62888 8.06817C4.67331 7.09321 4.83647 6.56415 4.97298 6.21115C5.15473 5.74426 5.37121 5.41147 5.72096 5.0609C6.07072 4.71115 6.40352 4.49386 6.87121 4.31292C7.22339 4.17561 7.75327 4.01326 8.72823 3.96883C9.78235 3.92037 10.099 3.91067 12.7686 3.91067C15.439 3.91067 15.7549 3.92117 16.8098 3.96883C17.7848 4.01326 18.3138 4.17641 18.6668 4.31292C19.1337 4.49386 19.4665 4.71115 19.8171 5.0609C20.1668 5.41067 20.3833 5.74426 20.565 6.21115C20.7024 6.56333 20.8647 7.09321 20.9092 8.06817C20.9576 9.12311 20.9673 9.43894 20.9673 12.1094C20.9673 14.779 20.9576 15.0957 20.9092 16.1506C20.8647 17.1256 20.7016 17.6554 20.565 18.0076C20.3833 18.4745 20.1668 18.8073 19.8171 19.1571C19.4673 19.5068 19.1337 19.7233 18.6668 19.905C18.3146 20.0424 17.7848 20.2047 16.8098 20.2491C15.7557 20.2976 15.439 20.3073 12.7686 20.3073C10.099 20.3073 9.78235 20.2976 8.72823 20.2491ZM8.64584 2.16996C7.58122 2.21843 6.85424 2.38724 6.21854 2.63441C5.56103 2.88966 5.00368 3.23215 4.44713 3.78788C3.8914 4.34363 3.54891 4.90098 3.29366 5.5593C3.04649 6.19499 2.87767 6.92198 2.8292 7.9866C2.77993 9.05283 2.76862 9.3937 2.76862 12.1094C2.76862 14.8251 2.77993 15.1659 2.8292 16.2322C2.87767 17.2968 3.04649 18.0238 3.29366 18.6595C3.54891 19.317 3.89059 19.8752 4.44713 20.4309C5.00287 20.9866 5.56022 21.3283 6.21854 21.5844C6.85505 21.8315 7.58122 22.0004 8.64584 22.0488C9.71289 22.0973 10.0529 22.1094 12.7686 22.1094C15.4851 22.1094 15.8251 22.0981 16.8914 22.0488C17.956 22.0004 18.683 21.8315 19.3187 21.5844C19.9762 21.3283 20.5335 20.9866 21.0901 20.4309C21.6458 19.8752 21.9875 19.317 22.2436 18.6595C22.4907 18.0238 22.6604 17.2968 22.708 16.2322C22.7565 15.1651 22.7678 14.8251 22.7678 12.1094C22.7678 9.3937 22.7565 9.05283 22.708 7.9866C22.6596 6.92198 22.4907 6.19499 22.2436 5.5593C21.9875 4.90179 21.6458 4.34443 21.0901 3.78788C20.5344 3.23215 19.9762 2.88966 19.3195 2.63441C18.683 2.38724 17.956 2.21762 16.8922 2.16996C15.826 2.1215 15.4851 2.10938 12.7694 2.10938C10.0529 2.10938 9.71289 2.12069 8.64584 2.16996Z" fill="black"/>
</g>
</svg>
