<svg width="25" height="25" viewBox="0 0 25 25" fill="none" xmlns="http://www.w3.org/2000/svg">
<g id="Frame">
<path id="Vector" d="M19.7688 2.10938H5.76862C3.76862 2.10938 2.76862 3.10938 2.76862 5.10938L2.76921 19.1094C2.76921 21.1094 3.76883 22.1094 5.76883 22.1094H19.7688C21.7688 22.1094 22.7688 21.1094 22.7688 19.1094V5.10938C22.7688 3.10938 21.7688 2.10938 19.7688 2.10938ZM9.43549 17.9428H6.93549V8.77604H9.43549V17.9428ZM8.18549 7.71937C7.38049 7.71937 6.72716 7.06105 6.72716 6.24938C6.72716 5.43771 7.38049 4.77937 8.18549 4.77937C8.99049 4.77937 9.64383 5.43771 9.64383 6.24938C9.64383 7.06105 8.99133 7.71937 8.18549 7.71937ZM19.4355 17.9428H16.9355V13.2728C16.9355 10.4661 13.6021 10.6786 13.6021 13.2728V17.9428H11.1021V8.77604H13.6021V10.2469C14.7655 8.09188 19.4355 7.93271 19.4355 12.3103V17.9428Z" fill="black"/>
</g>
</svg>
