<svg width="25" height="25" viewBox="0 0 25 25" fill="none" xmlns="http://www.w3.org/2000/svg">
<g id="Frame">
<path id="Vector" d="M22.7686 6.00355C22.0328 6.32512 21.2419 6.5417 20.4119 6.63932C21.2594 6.13973 21.9103 5.3481 22.2161 4.4047C21.4236 4.86738 20.5453 5.20371 19.6103 5.38502C18.8628 4.59995 17.7953 4.10938 16.6153 4.10938C13.9661 4.10938 12.0194 6.54251 12.6178 9.06835C9.20862 8.90018 6.18529 7.29232 4.16112 4.84851C3.08612 6.66393 3.60362 9.03883 5.43029 10.2415C4.75862 10.2201 4.12529 10.0388 3.57279 9.73612C3.52779 11.6073 4.89029 13.358 6.86362 13.7476C6.28612 13.9019 5.65362 13.9379 5.01029 13.8165C5.53195 15.4211 7.04695 16.5885 8.84362 16.6213C7.11862 17.9527 4.94529 18.5475 2.76862 18.2948C4.58445 19.4408 6.74195 20.1094 9.05862 20.1094C16.6769 20.1094 20.9811 13.7755 20.7211 8.0946C21.5228 7.52447 22.2186 6.81323 22.7686 6.00355Z" fill="black"/>
</g>
</svg>
