<svg width="25" height="25" viewBox="0 0 25 25" fill="none" xmlns="http://www.w3.org/2000/svg">
<g id="Frame">
<path id="Vector" d="M23.7677 9.81936C23.8171 8.38802 23.5041 6.96738 22.8577 5.68936C22.4191 5.16496 21.8104 4.81107 21.1377 4.68936C18.3552 4.43689 15.5612 4.33341 12.7677 4.37936C9.98432 4.33132 7.20038 4.43146 4.42767 4.67936C3.87949 4.77908 3.37219 5.03621 2.96767 5.41936C2.06767 6.24936 1.96767 7.66936 1.86767 8.86936C1.72258 11.0269 1.72258 13.1918 1.86767 15.3494C1.8966 16.0248 1.99716 16.6952 2.16767 17.3494C2.28825 17.8544 2.53219 18.3217 2.87767 18.7094C3.28494 19.1128 3.80405 19.3846 4.36767 19.4894C6.52359 19.7555 8.69589 19.8658 10.8677 19.8194C14.3677 19.8694 17.4376 19.8194 21.0676 19.5394C21.6451 19.441 22.1788 19.1689 22.5977 18.7594C22.8776 18.4793 23.0867 18.1365 23.2077 17.7594C23.5653 16.662 23.7409 15.5135 23.7276 14.3594C23.7677 13.7994 23.7677 10.4194 23.7677 9.81936ZM10.5077 14.9594V8.76936L16.4276 11.8794C14.7677 12.7994 12.5776 13.8394 10.5077 14.9594Z" fill="black"/>
</g>
</svg>
